G04*
G04 #@! TF.GenerationSoftware,Altium Limited,Altium Designer,19.1.9 (167)*
G04*
G04 Layer_Physical_Order=2*
G04 Layer_Color=36540*
%FSAX25Y25*%
%MOIN*%
G70*
G01*
G75*
%ADD10C,0.00787*%
%ADD11C,0.00598*%
%ADD19C,0.01968*%
%ADD21C,0.00800*%
%ADD22C,0.01968*%
%ADD23C,0.01181*%
%ADD24C,0.02362*%
G36*
X0765650Y3324883D02*
X0765150Y3324676D01*
X0763996Y3325830D01*
X0763665Y3326051D01*
X0763275Y3326129D01*
X0742949D01*
X0739153Y3329925D01*
X0738823Y3330146D01*
X0738432Y3330223D01*
X0734837D01*
X0734447Y3330146D01*
X0734116Y3329925D01*
X0731725Y3327534D01*
X0731504Y3327203D01*
X0731426Y3326813D01*
Y3317826D01*
X0720284Y3306683D01*
X0720063Y3306353D01*
X0719985Y3305962D01*
Y3279493D01*
X0713748Y3273256D01*
X0713527Y3272925D01*
X0713450Y3272535D01*
Y3252409D01*
X0712950Y3252257D01*
X0712738Y3252575D01*
X0712213Y3252925D01*
X0711595Y3253048D01*
X0710977Y3252925D01*
X0710453Y3252575D01*
X0710103Y3252050D01*
X0709980Y3251432D01*
X0710103Y3250814D01*
X0710453Y3250290D01*
X0710977Y3249940D01*
X0711595Y3249817D01*
X0712213Y3249940D01*
X0712738Y3250290D01*
X0712950Y3250608D01*
X0713450Y3250456D01*
Y3240516D01*
X0711046Y3238112D01*
X0710678Y3238358D01*
X0710060Y3238481D01*
X0709442Y3238358D01*
X0708918Y3238007D01*
X0708567Y3237484D01*
X0708445Y3236865D01*
X0708567Y3236247D01*
X0708918Y3235723D01*
X0709442Y3235373D01*
X0710060Y3235250D01*
X0710678Y3235373D01*
X0711202Y3235723D01*
X0711291Y3235855D01*
X0711631Y3235923D01*
X0711962Y3236144D01*
X0715190Y3239373D01*
X0715411Y3239703D01*
X0715489Y3240094D01*
Y3245964D01*
X0715951Y3246156D01*
X0720157Y3241950D01*
X0720182Y3241882D01*
X0720235Y3241826D01*
X0720268Y3241787D01*
X0720293Y3241751D01*
X0720313Y3241718D01*
X0720328Y3241689D01*
X0720338Y3241663D01*
X0720346Y3241639D01*
X0720351Y3241615D01*
X0720354Y3241592D01*
X0720356Y3241538D01*
X0720392Y3241459D01*
X0720497Y3240932D01*
X0720847Y3240408D01*
X0721371Y3240058D01*
X0721989Y3239935D01*
X0722607Y3240058D01*
X0723131Y3240408D01*
X0723481Y3240932D01*
X0723604Y3241550D01*
X0723481Y3242168D01*
X0723131Y3242693D01*
X0722607Y3243043D01*
X0722081Y3243147D01*
X0722001Y3243184D01*
X0721947Y3243185D01*
X0721924Y3243188D01*
X0721901Y3243193D01*
X0721876Y3243201D01*
X0721850Y3243211D01*
X0721821Y3243226D01*
X0721788Y3243246D01*
X0721752Y3243272D01*
X0721713Y3243304D01*
X0721657Y3243357D01*
X0721590Y3243383D01*
X0717057Y3247915D01*
Y3269792D01*
X0723178Y3275913D01*
X0723397Y3276241D01*
X0723475Y3276629D01*
Y3283652D01*
X0723975Y3283702D01*
X0724040Y3283373D01*
X0724390Y3282849D01*
X0724914Y3282499D01*
X0725532Y3282376D01*
X0726150Y3282499D01*
X0726675Y3282849D01*
X0727028D01*
X0727552Y3282499D01*
X0728170Y3282376D01*
X0728788Y3282499D01*
X0729141Y3282735D01*
X0729489Y3282811D01*
X0729837Y3282735D01*
X0730190Y3282499D01*
X0730808Y3282376D01*
X0731426Y3282499D01*
X0731950Y3282849D01*
X0732300Y3283373D01*
X0732423Y3283991D01*
X0732300Y3284610D01*
X0732065Y3284962D01*
X0731989Y3285310D01*
X0732065Y3285658D01*
X0732300Y3286011D01*
X0732423Y3286629D01*
X0732300Y3287247D01*
X0732065Y3287600D01*
X0731989Y3287948D01*
X0732065Y3288296D01*
X0732300Y3288649D01*
X0732423Y3289267D01*
X0732300Y3289885D01*
X0731950Y3290409D01*
X0731426Y3290759D01*
X0730808Y3290882D01*
X0730190Y3290759D01*
X0729837Y3290524D01*
X0729489Y3290448D01*
X0729141Y3290524D01*
X0728788Y3290759D01*
X0728170Y3290882D01*
X0727552Y3290759D01*
X0727028Y3290409D01*
X0726675D01*
X0726150Y3290759D01*
X0725532Y3290882D01*
X0724914Y3290759D01*
X0724390Y3290409D01*
X0724040Y3289885D01*
X0723975Y3289557D01*
X0723475Y3289606D01*
Y3305029D01*
X0733199Y3314753D01*
X0733742Y3314589D01*
X0733764Y3314476D01*
X0734115Y3313951D01*
X0734639Y3313601D01*
X0735257Y3313478D01*
X0735875Y3313601D01*
X0736399Y3313951D01*
X0736749Y3314476D01*
X0736872Y3315094D01*
X0736749Y3315712D01*
X0736399Y3316236D01*
X0735875Y3316586D01*
X0735257Y3316709D01*
X0734853Y3317138D01*
Y3323698D01*
X0735353Y3323965D01*
X0735544Y3323838D01*
X0736070Y3323733D01*
X0736150Y3323697D01*
X0736204Y3323695D01*
X0736227Y3323692D01*
X0736251Y3323687D01*
X0736275Y3323679D01*
X0736301Y3323669D01*
X0736331Y3323654D01*
X0736363Y3323634D01*
X0736399Y3323608D01*
X0736438Y3323576D01*
X0736494Y3323523D01*
X0736562Y3323498D01*
X0738753Y3321306D01*
X0739082Y3321087D01*
X0739469Y3321010D01*
X0761373D01*
X0766509Y3315873D01*
X0766838Y3315654D01*
X0767225Y3315577D01*
X0805693D01*
X0805759Y3315547D01*
X0805836Y3315545D01*
X0805887Y3315540D01*
X0805930Y3315533D01*
X0805967Y3315524D01*
X0805998Y3315514D01*
X0806024Y3315503D01*
X0806047Y3315491D01*
X0806067Y3315478D01*
X0806086Y3315463D01*
X0806125Y3315427D01*
X0806207Y3315396D01*
X0806315Y3315323D01*
X0806335Y3315223D01*
X0806555Y3314894D01*
X0819076Y3302373D01*
X0818912Y3301830D01*
X0818832Y3301814D01*
X0818307Y3301464D01*
X0817957Y3300940D01*
X0817834Y3300322D01*
X0817957Y3299704D01*
X0818307Y3299180D01*
X0818832Y3298830D01*
X0819450Y3298707D01*
X0820068Y3298830D01*
X0820592Y3299180D01*
X0820704Y3299348D01*
X0821305D01*
X0821418Y3299180D01*
X0821942Y3298830D01*
X0822468Y3298725D01*
X0822548Y3298689D01*
X0822601Y3298687D01*
X0822625Y3298684D01*
X0822648Y3298679D01*
X0822673Y3298672D01*
X0822699Y3298661D01*
X0822728Y3298646D01*
X0822760Y3298626D01*
X0822796Y3298601D01*
X0822836Y3298568D01*
X0822892Y3298515D01*
X0822931Y3298501D01*
X0823184Y3298176D01*
X0822984Y3297721D01*
X0806950D01*
X0806562Y3297644D01*
X0806233Y3297424D01*
X0798268Y3289459D01*
X0797824Y3289722D01*
X0797866Y3289936D01*
X0797866Y3289936D01*
Y3298676D01*
X0797797Y3299027D01*
X0797598Y3299324D01*
X0797598Y3299324D01*
X0788785Y3308137D01*
X0788760Y3308206D01*
X0788720Y3308250D01*
X0788702Y3308273D01*
X0788687Y3308298D01*
X0788672Y3308326D01*
X0788659Y3308359D01*
X0788647Y3308397D01*
X0788637Y3308442D01*
X0788629Y3308494D01*
X0788624Y3308553D01*
X0788622Y3308640D01*
X0788588Y3308718D01*
X0788481Y3309255D01*
X0788131Y3309779D01*
X0787607Y3310129D01*
X0786989Y3310252D01*
X0786371Y3310129D01*
X0785847Y3309779D01*
X0785497Y3309255D01*
X0785373Y3308637D01*
X0785497Y3308018D01*
X0785847Y3307494D01*
X0786371Y3307145D01*
X0786907Y3307038D01*
X0786986Y3307003D01*
X0787072Y3307001D01*
X0787132Y3306997D01*
X0787184Y3306989D01*
X0787228Y3306978D01*
X0787267Y3306966D01*
X0787299Y3306953D01*
X0787327Y3306939D01*
X0787353Y3306923D01*
X0787376Y3306905D01*
X0787419Y3306865D01*
X0787489Y3306840D01*
X0796033Y3298296D01*
Y3293125D01*
X0795533Y3292835D01*
X0795060Y3292929D01*
X0794442Y3292807D01*
X0793918Y3292456D01*
X0793568Y3291932D01*
X0793463Y3291406D01*
X0793427Y3291326D01*
X0793425Y3291273D01*
X0793422Y3291249D01*
X0793417Y3291226D01*
X0793409Y3291201D01*
X0793399Y3291175D01*
X0793384Y3291146D01*
X0793364Y3291114D01*
X0793338Y3291077D01*
X0793306Y3291039D01*
X0793253Y3290982D01*
X0793227Y3290915D01*
X0791706Y3289393D01*
X0791486Y3289064D01*
X0791409Y3288676D01*
Y3287141D01*
X0791486Y3286753D01*
X0791706Y3286425D01*
X0792468Y3285662D01*
X0792261Y3285162D01*
X0791031D01*
X0790697Y3285495D01*
X0790369Y3285715D01*
X0789981Y3285792D01*
X0788331D01*
X0788265Y3285822D01*
X0788188Y3285824D01*
X0788137Y3285829D01*
X0788094Y3285836D01*
X0788057Y3285845D01*
X0788026Y3285855D01*
X0787999Y3285866D01*
X0787977Y3285878D01*
X0787957Y3285891D01*
X0787938Y3285905D01*
X0787899Y3285942D01*
X0787817Y3285973D01*
X0787371Y3286271D01*
X0786753Y3286394D01*
X0786135Y3286271D01*
X0785965Y3286158D01*
X0785465Y3286425D01*
Y3292197D01*
X0789481Y3296214D01*
X0789550Y3296239D01*
X0789594Y3296279D01*
X0789617Y3296296D01*
X0789642Y3296312D01*
X0789671Y3296326D01*
X0789703Y3296340D01*
X0789741Y3296352D01*
X0789786Y3296362D01*
X0789838Y3296370D01*
X0789898Y3296375D01*
X0789984Y3296376D01*
X0790063Y3296411D01*
X0790599Y3296518D01*
X0791123Y3296868D01*
X0791473Y3297392D01*
X0791596Y3298010D01*
X0791473Y3298628D01*
X0791123Y3299152D01*
X0790642Y3299474D01*
X0790584Y3299566D01*
X0790470Y3300038D01*
X0790725Y3300420D01*
X0790848Y3301039D01*
X0790725Y3301657D01*
X0790375Y3302181D01*
X0789851Y3302531D01*
X0789233Y3302654D01*
X0788615Y3302531D01*
X0788091Y3302181D01*
X0787741Y3301657D01*
X0787618Y3301039D01*
X0787741Y3300420D01*
X0788091Y3299896D01*
X0788572Y3299575D01*
X0788630Y3299482D01*
X0788744Y3299011D01*
X0788489Y3298628D01*
X0788382Y3298092D01*
X0788348Y3298013D01*
X0788346Y3297927D01*
X0788341Y3297867D01*
X0788333Y3297815D01*
X0788323Y3297770D01*
X0788311Y3297732D01*
X0788298Y3297700D01*
X0788283Y3297672D01*
X0788267Y3297646D01*
X0788250Y3297623D01*
X0788210Y3297580D01*
X0788185Y3297510D01*
X0783900Y3293225D01*
X0783701Y3292928D01*
X0783631Y3292577D01*
Y3283838D01*
X0783701Y3283487D01*
X0783900Y3283189D01*
X0784960Y3282129D01*
X0784985Y3282060D01*
X0785025Y3282016D01*
X0785043Y3281993D01*
X0785059Y3281968D01*
X0785073Y3281940D01*
X0785086Y3281907D01*
X0785098Y3281869D01*
X0785109Y3281824D01*
X0785117Y3281772D01*
X0785121Y3281712D01*
X0785123Y3281626D01*
X0785158Y3281548D01*
X0785264Y3281011D01*
X0785614Y3280487D01*
X0785812Y3280355D01*
Y3279754D01*
X0785614Y3279622D01*
X0785264Y3279098D01*
X0785141Y3278479D01*
X0785264Y3277861D01*
X0785614Y3277337D01*
X0785810Y3277207D01*
Y3276605D01*
X0785611Y3276472D01*
X0785260Y3275948D01*
X0785138Y3275330D01*
X0785260Y3274712D01*
X0785611Y3274188D01*
X0785808Y3274056D01*
Y3273455D01*
X0785611Y3273323D01*
X0785260Y3272799D01*
X0785138Y3272180D01*
X0785213Y3271801D01*
X0784901Y3271342D01*
X0784518Y3271302D01*
X0779323Y3276497D01*
Y3290684D01*
X0779323Y3290684D01*
X0779253Y3291035D01*
X0779055Y3291333D01*
X0779055Y3291333D01*
X0755629Y3314758D01*
X0755332Y3314957D01*
X0754981Y3315026D01*
X0752703D01*
X0752436Y3315526D01*
X0752576Y3315735D01*
X0752699Y3316354D01*
X0752576Y3316972D01*
X0752226Y3317496D01*
X0751702Y3317846D01*
X0751084Y3317969D01*
X0750465Y3317846D01*
X0749941Y3317496D01*
X0749591Y3316972D01*
X0749468Y3316354D01*
X0749591Y3315735D01*
X0749731Y3315526D01*
X0749464Y3315026D01*
X0744666D01*
X0744315Y3314957D01*
X0744018Y3314758D01*
X0744018Y3314758D01*
X0734805Y3305545D01*
X0734607Y3305248D01*
X0734537Y3304897D01*
Y3303095D01*
X0734506Y3303028D01*
X0734503Y3302970D01*
X0734499Y3302941D01*
X0734492Y3302912D01*
X0734483Y3302882D01*
X0734469Y3302849D01*
X0734450Y3302814D01*
X0734426Y3302775D01*
X0734395Y3302732D01*
X0734356Y3302687D01*
X0734296Y3302625D01*
X0734265Y3302544D01*
X0733961Y3302090D01*
X0733838Y3301472D01*
X0733961Y3300853D01*
X0734311Y3300330D01*
X0734835Y3299979D01*
X0735454Y3299857D01*
X0736072Y3299979D01*
X0736596Y3300330D01*
X0736946Y3300853D01*
X0737069Y3301472D01*
X0736946Y3302090D01*
X0736642Y3302544D01*
X0736611Y3302625D01*
X0736551Y3302687D01*
X0736512Y3302732D01*
X0736481Y3302775D01*
X0736457Y3302814D01*
X0736438Y3302849D01*
X0736424Y3302882D01*
X0736415Y3302912D01*
X0736408Y3302941D01*
X0736404Y3302970D01*
X0736402Y3303028D01*
X0736370Y3303095D01*
Y3304517D01*
X0745046Y3313193D01*
X0747270D01*
X0747398Y3312993D01*
X0747487Y3312693D01*
X0747190Y3312247D01*
X0747067Y3311629D01*
X0747190Y3311011D01*
X0747540Y3310487D01*
X0748064Y3310137D01*
X0748682Y3310014D01*
X0749300Y3310137D01*
X0749746Y3310435D01*
X0749828Y3310466D01*
X0749867Y3310502D01*
X0749886Y3310517D01*
X0749906Y3310530D01*
X0749929Y3310542D01*
X0749955Y3310553D01*
X0749986Y3310563D01*
X0750023Y3310572D01*
X0750066Y3310579D01*
X0750117Y3310584D01*
X0750194Y3310586D01*
X0750260Y3310616D01*
X0754443D01*
X0761038Y3304021D01*
X0760993Y3303529D01*
X0760568Y3303312D01*
X0760442Y3303397D01*
X0759824Y3303520D01*
X0759205Y3303397D01*
X0758681Y3303047D01*
X0758331Y3302523D01*
X0758227Y3301996D01*
X0758190Y3301917D01*
X0758189Y3301863D01*
X0758186Y3301839D01*
X0758181Y3301816D01*
X0758173Y3301792D01*
X0758162Y3301765D01*
X0758148Y3301736D01*
X0758128Y3301704D01*
X0758102Y3301668D01*
X0758070Y3301629D01*
X0758017Y3301573D01*
X0757991Y3301505D01*
X0752576Y3296090D01*
X0752034Y3296255D01*
X0751985Y3296499D01*
X0751635Y3297023D01*
X0751111Y3297374D01*
X0750493Y3297496D01*
X0749875Y3297374D01*
X0749351Y3297023D01*
X0749001Y3296499D01*
X0748878Y3295881D01*
X0749001Y3295263D01*
X0749351Y3294739D01*
X0749875Y3294389D01*
X0750119Y3294340D01*
X0750284Y3293798D01*
X0748084Y3291597D01*
X0747864Y3291269D01*
X0747787Y3290881D01*
Y3256236D01*
X0747864Y3255848D01*
X0748084Y3255519D01*
X0754755Y3248848D01*
Y3248719D01*
X0754726Y3248653D01*
X0754723Y3248576D01*
X0754718Y3248525D01*
X0754711Y3248482D01*
X0754702Y3248445D01*
X0754692Y3248414D01*
X0754681Y3248388D01*
X0754669Y3248365D01*
X0754656Y3248345D01*
X0754642Y3248326D01*
X0754605Y3248287D01*
X0754574Y3248205D01*
X0754494Y3248085D01*
X0753893D01*
X0753840Y3248165D01*
X0753316Y3248515D01*
X0752698Y3248638D01*
X0752079Y3248515D01*
X0751654Y3248231D01*
X0751079Y3248192D01*
X0751045Y3248244D01*
X0750521Y3248594D01*
X0749902Y3248717D01*
X0749284Y3248594D01*
X0748760Y3248244D01*
X0748410Y3247720D01*
X0748287Y3247102D01*
X0748410Y3246483D01*
X0748718Y3246023D01*
X0748646Y3245757D01*
X0748514Y3245523D01*
X0745403D01*
X0739938Y3250988D01*
Y3254848D01*
X0740438Y3255055D01*
X0744172Y3251320D01*
X0744198Y3251252D01*
X0744251Y3251196D01*
X0744283Y3251157D01*
X0744309Y3251121D01*
X0744329Y3251089D01*
X0744344Y3251060D01*
X0744354Y3251033D01*
X0744362Y3251009D01*
X0744367Y3250986D01*
X0744370Y3250962D01*
X0744372Y3250909D01*
X0744408Y3250829D01*
X0744512Y3250302D01*
X0744863Y3249778D01*
X0745387Y3249428D01*
X0746005Y3249305D01*
X0746623Y3249428D01*
X0747147Y3249778D01*
X0747497Y3250302D01*
X0747620Y3250920D01*
X0747497Y3251538D01*
X0747147Y3252063D01*
X0746623Y3252413D01*
X0746096Y3252517D01*
X0746017Y3252554D01*
X0745963Y3252555D01*
X0745940Y3252559D01*
X0745916Y3252563D01*
X0745892Y3252571D01*
X0745866Y3252582D01*
X0745836Y3252596D01*
X0745804Y3252616D01*
X0745768Y3252642D01*
X0745729Y3252674D01*
X0745673Y3252727D01*
X0745605Y3252753D01*
X0741782Y3256577D01*
Y3270487D01*
X0741705Y3270875D01*
X0741485Y3271204D01*
X0738152Y3274537D01*
X0738126Y3274604D01*
X0738073Y3274660D01*
X0738041Y3274700D01*
X0738015Y3274736D01*
X0737996Y3274768D01*
X0737981Y3274797D01*
X0737970Y3274823D01*
X0737963Y3274848D01*
X0737958Y3274871D01*
X0737955Y3274895D01*
X0737953Y3274948D01*
X0737917Y3275028D01*
X0737812Y3275554D01*
X0737462Y3276078D01*
X0736938Y3276429D01*
X0736320Y3276551D01*
X0735702Y3276429D01*
X0735178Y3276078D01*
X0734827Y3275554D01*
X0734704Y3274936D01*
X0734827Y3274318D01*
X0735178Y3273794D01*
X0735581Y3273524D01*
X0735431Y3273096D01*
X0735399Y3273045D01*
X0734796Y3272924D01*
X0734272Y3272575D01*
X0733922Y3272050D01*
X0733799Y3271432D01*
X0733922Y3270814D01*
X0734272Y3270290D01*
X0734796Y3269940D01*
X0735322Y3269835D01*
X0735401Y3269799D01*
X0735453Y3269797D01*
X0735474Y3269794D01*
X0735495Y3269790D01*
X0735518Y3269783D01*
X0735544Y3269772D01*
X0735573Y3269757D01*
X0735606Y3269737D01*
X0735642Y3269711D01*
X0735682Y3269677D01*
X0735739Y3269624D01*
X0735807Y3269598D01*
X0737898Y3267506D01*
Y3259656D01*
X0737398Y3259389D01*
X0737292Y3259460D01*
X0736825Y3259553D01*
X0736710Y3259733D01*
X0736630Y3259954D01*
X0736617Y3260065D01*
X0736906Y3260499D01*
X0737030Y3261117D01*
X0736906Y3261736D01*
X0736556Y3262260D01*
X0736032Y3262610D01*
X0735414Y3262733D01*
X0734796Y3262610D01*
X0734272Y3262260D01*
X0733922Y3261736D01*
X0733817Y3261209D01*
X0733781Y3261129D01*
X0733779Y3261076D01*
X0733776Y3261052D01*
X0733771Y3261029D01*
X0733764Y3261005D01*
X0733753Y3260978D01*
X0733738Y3260949D01*
X0733718Y3260917D01*
X0733693Y3260881D01*
X0733660Y3260842D01*
X0733607Y3260786D01*
X0733582Y3260718D01*
X0732532Y3259668D01*
X0732313Y3259340D01*
X0732236Y3258952D01*
Y3256098D01*
X0730381Y3254243D01*
X0730313Y3254218D01*
X0730257Y3254165D01*
X0730218Y3254132D01*
X0730182Y3254107D01*
X0730149Y3254087D01*
X0730120Y3254072D01*
X0730094Y3254061D01*
X0730069Y3254054D01*
X0730046Y3254049D01*
X0730023Y3254046D01*
X0729969Y3254044D01*
X0729889Y3254008D01*
X0729363Y3253903D01*
X0728839Y3253553D01*
X0728489Y3253029D01*
X0728366Y3252411D01*
X0728489Y3251793D01*
X0728839Y3251269D01*
X0729363Y3250919D01*
X0729981Y3250795D01*
X0730599Y3250919D01*
X0731123Y3251269D01*
X0731473Y3251793D01*
X0731578Y3252319D01*
X0731614Y3252399D01*
X0731616Y3252452D01*
X0731619Y3252476D01*
X0731624Y3252499D01*
X0731632Y3252523D01*
X0731642Y3252550D01*
X0731657Y3252579D01*
X0731677Y3252612D01*
X0731703Y3252647D01*
X0731735Y3252686D01*
X0731788Y3252743D01*
X0731813Y3252810D01*
X0733965Y3254962D01*
X0734185Y3255291D01*
X0734262Y3255679D01*
Y3258532D01*
X0734727Y3258997D01*
X0734853Y3258994D01*
X0734979Y3258838D01*
X0735162Y3258487D01*
X0735059Y3257968D01*
X0735182Y3257350D01*
X0735480Y3256903D01*
X0735511Y3256821D01*
X0735547Y3256782D01*
X0735562Y3256763D01*
X0735575Y3256743D01*
X0735587Y3256721D01*
X0735598Y3256695D01*
X0735608Y3256664D01*
X0735617Y3256627D01*
X0735624Y3256583D01*
X0735629Y3256533D01*
X0735631Y3256456D01*
X0735661Y3256390D01*
Y3250448D01*
X0735738Y3250060D01*
X0735958Y3249731D01*
X0743290Y3242399D01*
X0743098Y3241938D01*
X0733328D01*
X0732863Y3241845D01*
X0732469Y3241582D01*
X0732469Y3241582D01*
X0732290Y3241403D01*
X0731829Y3241649D01*
X0731911Y3242062D01*
X0731788Y3242680D01*
X0731438Y3243204D01*
X0730914Y3243555D01*
X0730296Y3243678D01*
X0729678Y3243555D01*
X0729154Y3243204D01*
X0728906Y3242834D01*
X0728408Y3242795D01*
X0728338Y3242815D01*
X0728131Y3243126D01*
X0727607Y3243476D01*
X0726989Y3243599D01*
X0726371Y3243476D01*
X0725847Y3243126D01*
X0725497Y3242602D01*
X0725374Y3241983D01*
X0725497Y3241365D01*
X0725847Y3240841D01*
X0726371Y3240491D01*
X0726989Y3240368D01*
X0727607Y3240491D01*
X0728131Y3240841D01*
X0728379Y3241212D01*
X0728877Y3241251D01*
X0728947Y3241230D01*
X0729154Y3240920D01*
X0729678Y3240570D01*
X0730296Y3240447D01*
X0730709Y3240529D01*
X0730956Y3240068D01*
X0729951Y3239064D01*
X0718328D01*
X0718328Y3239064D01*
X0717863Y3238971D01*
X0717469Y3238708D01*
X0717469Y3238708D01*
X0710814Y3232053D01*
X0710752Y3232028D01*
X0710680Y3231957D01*
X0710561Y3231847D01*
X0710473Y3231776D01*
X0710457Y3231764D01*
X0710454Y3231762D01*
X0710439Y3231755D01*
X0710436Y3231751D01*
X0710429Y3231747D01*
X0710426Y3231743D01*
X0710032Y3231665D01*
X0709508Y3231314D01*
X0709158Y3230791D01*
X0709035Y3230172D01*
X0709158Y3229554D01*
X0709508Y3229030D01*
X0710032Y3228680D01*
X0710650Y3228557D01*
X0711269Y3228680D01*
X0711793Y3229030D01*
X0712143Y3229554D01*
X0712221Y3229948D01*
X0712225Y3229951D01*
X0712229Y3229958D01*
X0712233Y3229961D01*
X0712240Y3229976D01*
X0712242Y3229979D01*
X0712247Y3229986D01*
X0712441Y3230209D01*
X0712506Y3230274D01*
X0712531Y3230336D01*
X0718830Y3236636D01*
X0730453D01*
X0730454Y3236636D01*
X0730918Y3236728D01*
X0731312Y3236991D01*
X0733830Y3239510D01*
X0734576D01*
X0734686Y3239346D01*
X0734686Y3190054D01*
X0734876Y3189595D01*
X0735335Y3189405D01*
Y3180841D01*
X0734891Y3180613D01*
X0733394Y3181685D01*
X0729044Y3185255D01*
X0724936Y3189103D01*
X0721088Y3193211D01*
X0717518Y3197561D01*
X0714239Y3202137D01*
X0711267Y3206916D01*
X0708614Y3211880D01*
X0706291Y3217007D01*
X0704309Y3222274D01*
X0702675Y3227660D01*
X0701397Y3233141D01*
X0700480Y3238695D01*
X0699928Y3244296D01*
X0699744Y3249921D01*
X0699928Y3255547D01*
X0700480Y3261148D01*
X0701397Y3266701D01*
X0702675Y3272182D01*
X0704309Y3277568D01*
X0706291Y3282836D01*
X0708614Y3287963D01*
X0711267Y3292926D01*
X0712780Y3295359D01*
X0713035Y3295770D01*
X0713005Y3295789D01*
Y3295789D01*
X0717378Y3302867D01*
X0722814Y3312413D01*
X0727906Y3322147D01*
X0732647Y3332057D01*
X0737031Y3342130D01*
X0741053Y3352353D01*
X0744708Y3362712D01*
X0746180Y3367412D01*
X0765650D01*
Y3324883D01*
D02*
G37*
G36*
X0737149Y3325238D02*
X0737159Y3325157D01*
X0737176Y3325077D01*
X0737200Y3324999D01*
X0737232Y3324921D01*
X0737270Y3324846D01*
X0737316Y3324770D01*
X0737369Y3324697D01*
X0737429Y3324624D01*
X0737496Y3324553D01*
X0736939Y3323996D01*
X0736868Y3324063D01*
X0736795Y3324123D01*
X0736722Y3324176D01*
X0736647Y3324222D01*
X0736571Y3324260D01*
X0736493Y3324292D01*
X0736415Y3324316D01*
X0736335Y3324333D01*
X0736254Y3324343D01*
X0736172Y3324346D01*
X0737146Y3325320D01*
X0737149Y3325238D01*
D02*
G37*
G36*
X0815181Y3317236D02*
X0815190Y3317143D01*
X0815205Y3317053D01*
X0815225Y3316968D01*
X0815252Y3316887D01*
X0815284Y3316810D01*
X0815323Y3316737D01*
X0815367Y3316669D01*
X0815417Y3316605D01*
X0815473Y3316545D01*
X0814095D01*
X0814151Y3316605D01*
X0814202Y3316669D01*
X0814246Y3316737D01*
X0814284Y3316810D01*
X0814317Y3316887D01*
X0814343Y3316968D01*
X0814364Y3317053D01*
X0814379Y3317143D01*
X0814388Y3317236D01*
X0814391Y3317334D01*
X0815178D01*
X0815181Y3317236D01*
D02*
G37*
G36*
X0806568Y3315901D02*
X0806508Y3315957D01*
X0806444Y3316007D01*
X0806376Y3316051D01*
X0806303Y3316090D01*
X0806226Y3316122D01*
X0806145Y3316149D01*
X0806060Y3316169D01*
X0805970Y3316184D01*
X0805877Y3316193D01*
X0805779Y3316196D01*
Y3316983D01*
X0805877Y3316986D01*
X0805970Y3316995D01*
X0806060Y3317010D01*
X0806145Y3317031D01*
X0806226Y3317057D01*
X0806303Y3317090D01*
X0806376Y3317128D01*
X0806444Y3317172D01*
X0806508Y3317223D01*
X0806568Y3317279D01*
Y3315901D01*
D02*
G37*
G36*
X0817767Y3314779D02*
X0817686Y3314776D01*
X0817607Y3314766D01*
X0817528Y3314749D01*
X0817451Y3314724D01*
X0817374Y3314693D01*
X0817298Y3314654D01*
X0817224Y3314608D01*
X0817150Y3314555D01*
X0817078Y3314494D01*
X0817006Y3314427D01*
X0816440Y3314992D01*
X0816508Y3315064D01*
X0816568Y3315137D01*
X0816621Y3315210D01*
X0816667Y3315285D01*
X0816706Y3315361D01*
X0816738Y3315437D01*
X0816762Y3315515D01*
X0816779Y3315593D01*
X0816789Y3315673D01*
X0816792Y3315753D01*
X0817767Y3314779D01*
D02*
G37*
G36*
X0846500Y3312559D02*
X0846706Y3312379D01*
X0846773Y3312329D01*
X0846904Y3312241D01*
X0846968Y3312204D01*
X0847093Y3312143D01*
X0845813Y3311634D01*
X0845839Y3311703D01*
X0845854Y3311773D01*
X0845858Y3311842D01*
X0845852Y3311913D01*
X0845835Y3311984D01*
X0845809Y3312055D01*
X0845771Y3312127D01*
X0845724Y3312200D01*
X0845666Y3312273D01*
X0845597Y3312346D01*
X0846429Y3312628D01*
X0846500Y3312559D01*
D02*
G37*
G36*
X0749445Y3312262D02*
X0749509Y3312212D01*
X0749577Y3312167D01*
X0749650Y3312129D01*
X0749727Y3312097D01*
X0749808Y3312070D01*
X0749893Y3312049D01*
X0749983Y3312035D01*
X0750077Y3312026D01*
X0750175Y3312023D01*
Y3311235D01*
X0750077Y3311232D01*
X0749983Y3311224D01*
X0749893Y3311209D01*
X0749808Y3311188D01*
X0749727Y3311161D01*
X0749650Y3311129D01*
X0749577Y3311091D01*
X0749509Y3311047D01*
X0749445Y3310996D01*
X0749385Y3310940D01*
Y3312318D01*
X0749445Y3312262D01*
D02*
G37*
G36*
X0843603Y3322147D02*
X0848695Y3312413D01*
X0854131Y3302867D01*
X0858503Y3295789D01*
X0858503Y3295789D01*
X0858473Y3295770D01*
X0858729Y3295359D01*
X0860241Y3292926D01*
X0862895Y3287963D01*
X0865217Y3282836D01*
X0867200Y3277568D01*
X0867679Y3275988D01*
Y3223854D01*
X0867200Y3222274D01*
X0865217Y3217007D01*
X0862895Y3211880D01*
X0860241Y3206916D01*
X0857269Y3202137D01*
X0853991Y3197561D01*
X0850420Y3193211D01*
X0846573Y3189103D01*
X0842465Y3185255D01*
X0838114Y3181685D01*
X0836568Y3180577D01*
X0836123Y3180805D01*
X0836123Y3189405D01*
X0836582Y3189595D01*
X0836772Y3190054D01*
X0836772Y3233474D01*
X0837272Y3233767D01*
X0837737Y3233675D01*
X0838355Y3233798D01*
X0838879Y3234148D01*
X0839229Y3234672D01*
X0839352Y3235291D01*
X0839229Y3235909D01*
X0838879Y3236433D01*
X0838750Y3236519D01*
Y3248834D01*
X0838673Y3249222D01*
X0838453Y3249551D01*
X0826438Y3261566D01*
X0826467Y3261679D01*
X0827007Y3261771D01*
X0827107Y3261621D01*
X0827631Y3261271D01*
X0828249Y3261148D01*
X0828867Y3261271D01*
X0829391Y3261621D01*
X0829741Y3262145D01*
X0829864Y3262763D01*
X0829811Y3263029D01*
X0830555Y3263772D01*
X0831055Y3263565D01*
Y3261708D01*
X0831132Y3261320D01*
X0831351Y3260991D01*
X0853456Y3238887D01*
Y3223795D01*
X0853533Y3223407D01*
X0853753Y3223078D01*
X0858790Y3218041D01*
X0858759Y3217889D01*
X0858883Y3217271D01*
X0859233Y3216747D01*
X0859757Y3216397D01*
X0860375Y3216274D01*
X0860993Y3216397D01*
X0861517Y3216747D01*
X0861867Y3217271D01*
X0861990Y3217889D01*
X0861867Y3218507D01*
X0861517Y3219031D01*
X0860993Y3219381D01*
X0860375Y3219504D01*
X0860223Y3219474D01*
X0855482Y3224214D01*
Y3239306D01*
X0855405Y3239694D01*
X0855186Y3240023D01*
X0833081Y3262128D01*
Y3292810D01*
X0833004Y3293198D01*
X0832784Y3293526D01*
X0831116Y3295195D01*
X0831323Y3295695D01*
X0842396D01*
X0845306Y3292784D01*
Y3278680D01*
X0845277Y3278614D01*
X0845275Y3278537D01*
X0845270Y3278486D01*
X0845263Y3278442D01*
X0845254Y3278406D01*
X0845243Y3278374D01*
X0845232Y3278349D01*
X0845220Y3278326D01*
X0845208Y3278306D01*
X0845193Y3278287D01*
X0845156Y3278248D01*
X0845126Y3278166D01*
X0844827Y3277720D01*
X0844704Y3277102D01*
X0844827Y3276484D01*
X0845177Y3275959D01*
X0845702Y3275609D01*
X0846320Y3275486D01*
X0846938Y3275609D01*
X0847462Y3275959D01*
X0847812Y3276484D01*
X0847935Y3277102D01*
X0847812Y3277720D01*
X0847514Y3278166D01*
X0847483Y3278248D01*
X0847447Y3278287D01*
X0847432Y3278306D01*
X0847419Y3278326D01*
X0847407Y3278348D01*
X0847396Y3278374D01*
X0847386Y3278406D01*
X0847377Y3278442D01*
X0847370Y3278486D01*
X0847365Y3278537D01*
X0847363Y3278614D01*
X0847333Y3278680D01*
Y3291443D01*
X0847795Y3291635D01*
X0850278Y3289151D01*
X0850167Y3288784D01*
X0850082Y3288640D01*
X0849607Y3288322D01*
X0849257Y3287798D01*
X0849133Y3287180D01*
X0849257Y3286562D01*
X0849607Y3286038D01*
X0850131Y3285688D01*
X0850749Y3285565D01*
X0850901Y3285595D01*
X0852511Y3283985D01*
Y3283294D01*
X0852011Y3283142D01*
X0851891Y3283323D01*
X0851367Y3283673D01*
X0850749Y3283796D01*
X0850131Y3283673D01*
X0849607Y3283323D01*
X0849257Y3282798D01*
X0849133Y3282180D01*
X0849257Y3281562D01*
X0849607Y3281038D01*
X0849729Y3280956D01*
Y3280625D01*
X0849807Y3280235D01*
X0850028Y3279904D01*
X0850732Y3279200D01*
X0850715Y3279070D01*
X0850535Y3278690D01*
X0850052Y3278594D01*
X0849528Y3278244D01*
X0849178Y3277720D01*
X0849055Y3277102D01*
X0849178Y3276484D01*
X0849528Y3275959D01*
X0850052Y3275609D01*
X0850670Y3275486D01*
X0850822Y3275517D01*
X0851188Y3275151D01*
Y3274548D01*
X0850688Y3274301D01*
X0850539Y3274415D01*
X0849917Y3274673D01*
X0849249Y3274761D01*
X0848581Y3274673D01*
X0847958Y3274415D01*
X0847424Y3274005D01*
X0847014Y3273471D01*
X0846756Y3272848D01*
X0846668Y3272180D01*
X0846756Y3271512D01*
X0847014Y3270890D01*
X0847424Y3270356D01*
X0847958Y3269945D01*
X0848581Y3269688D01*
X0849249Y3269600D01*
X0849917Y3269688D01*
X0850539Y3269945D01*
X0850688Y3270060D01*
X0851188Y3269813D01*
Y3260672D01*
X0851098Y3260600D01*
X0850688Y3260450D01*
X0850284Y3260720D01*
X0849666Y3260843D01*
X0849048Y3260720D01*
X0848524Y3260370D01*
X0848174Y3259846D01*
X0848051Y3259228D01*
X0848141Y3258773D01*
X0847725Y3258449D01*
X0847568Y3258554D01*
X0846950Y3258678D01*
X0846332Y3258554D01*
X0845807Y3258204D01*
X0845457Y3257681D01*
X0845334Y3257062D01*
X0845457Y3256444D01*
X0845807Y3255920D01*
X0846332Y3255570D01*
X0846950Y3255447D01*
X0847568Y3255570D01*
X0848092Y3255920D01*
X0848442Y3256444D01*
X0848565Y3257062D01*
X0848474Y3257517D01*
X0848890Y3257840D01*
X0849048Y3257735D01*
X0849666Y3257612D01*
X0850284Y3257735D01*
X0850688Y3258005D01*
X0851098Y3257855D01*
X0851188Y3257784D01*
Y3246299D01*
X0851265Y3245911D01*
X0851485Y3245583D01*
X0856724Y3240343D01*
Y3231944D01*
X0856801Y3231556D01*
X0857021Y3231228D01*
X0858988Y3229260D01*
X0859317Y3229041D01*
X0859705Y3228963D01*
X0862730D01*
X0862816Y3228835D01*
X0863340Y3228484D01*
X0863958Y3228361D01*
X0864577Y3228484D01*
X0865100Y3228835D01*
X0865451Y3229358D01*
X0865574Y3229977D01*
X0865451Y3230595D01*
X0865100Y3231119D01*
X0864577Y3231469D01*
X0863958Y3231592D01*
X0863340Y3231469D01*
X0862816Y3231119D01*
X0862730Y3230990D01*
X0860124D01*
X0858750Y3232364D01*
Y3240763D01*
X0858714Y3240946D01*
X0859175Y3241192D01*
X0862372Y3237995D01*
X0862343Y3237851D01*
X0862466Y3237233D01*
X0862816Y3236708D01*
X0863340Y3236358D01*
X0863958Y3236235D01*
X0864577Y3236358D01*
X0865100Y3236708D01*
X0865451Y3237233D01*
X0865574Y3237851D01*
X0865451Y3238469D01*
X0865100Y3238993D01*
X0864577Y3239343D01*
X0863958Y3239466D01*
X0863814Y3239437D01*
X0854615Y3248636D01*
Y3255223D01*
X0855114Y3255450D01*
X0855465Y3255215D01*
X0856083Y3255093D01*
X0856702Y3255215D01*
X0857226Y3255566D01*
X0857576Y3256090D01*
X0857699Y3256708D01*
X0857576Y3257326D01*
X0857226Y3257850D01*
X0856702Y3258200D01*
X0856083Y3258323D01*
X0855465Y3258200D01*
X0855114Y3257966D01*
X0854615Y3258192D01*
Y3270596D01*
X0855114Y3270759D01*
X0855424Y3270356D01*
X0855958Y3269945D01*
X0856581Y3269688D01*
X0857249Y3269600D01*
X0857917Y3269688D01*
X0858539Y3269945D01*
X0858688Y3270060D01*
X0859188Y3269813D01*
Y3249482D01*
X0859265Y3249094D01*
X0859485Y3248765D01*
X0862373Y3245877D01*
X0862343Y3245724D01*
X0862466Y3245107D01*
X0862816Y3244582D01*
X0863340Y3244232D01*
X0863958Y3244109D01*
X0864577Y3244232D01*
X0865100Y3244582D01*
X0865451Y3245107D01*
X0865574Y3245724D01*
X0865451Y3246343D01*
X0865100Y3246867D01*
X0864577Y3247217D01*
X0863958Y3247340D01*
X0863806Y3247309D01*
X0861214Y3249902D01*
Y3254256D01*
X0861676Y3254448D01*
X0862373Y3253751D01*
X0862343Y3253599D01*
X0862466Y3252980D01*
X0862816Y3252456D01*
X0863340Y3252106D01*
X0863958Y3251983D01*
X0864577Y3252106D01*
X0865100Y3252456D01*
X0865451Y3252980D01*
X0865574Y3253599D01*
X0865451Y3254217D01*
X0865100Y3254741D01*
X0864577Y3255091D01*
X0863958Y3255214D01*
X0863806Y3255183D01*
X0862727Y3256263D01*
Y3267663D01*
X0863227Y3267930D01*
X0863340Y3267854D01*
X0863958Y3267731D01*
X0864577Y3267854D01*
X0865100Y3268204D01*
X0865451Y3268729D01*
X0865574Y3269347D01*
Y3276707D01*
X0865451Y3277325D01*
X0865100Y3277849D01*
X0861675Y3281274D01*
Y3282810D01*
X0861552Y3283429D01*
X0861202Y3283952D01*
X0860061Y3285094D01*
Y3289818D01*
X0859938Y3290436D01*
X0859588Y3290960D01*
X0859064Y3291311D01*
X0858446Y3291433D01*
X0857827Y3291311D01*
X0857304Y3290960D01*
X0856953Y3290436D01*
X0856830Y3289818D01*
Y3286172D01*
X0856330Y3285965D01*
X0853146Y3289149D01*
X0853385Y3289618D01*
X0853917Y3289687D01*
X0854539Y3289945D01*
X0855074Y3290356D01*
X0855484Y3290890D01*
X0855742Y3291512D01*
X0855830Y3292180D01*
X0855742Y3292848D01*
X0855484Y3293471D01*
X0855074Y3294005D01*
X0854539Y3294415D01*
X0853917Y3294673D01*
X0853249Y3294761D01*
X0852581Y3294673D01*
X0851958Y3294415D01*
X0851424Y3294005D01*
X0851014Y3293471D01*
X0850756Y3292848D01*
X0850686Y3292316D01*
X0850217Y3292078D01*
X0849026Y3293269D01*
Y3293873D01*
X0848949Y3294261D01*
X0848729Y3294590D01*
X0844477Y3298841D01*
X0844148Y3299061D01*
X0843761Y3299138D01*
X0833314D01*
X0833114Y3299512D01*
X0833097Y3299638D01*
X0833211Y3300212D01*
X0833088Y3300830D01*
X0832738Y3301354D01*
X0832213Y3301704D01*
X0831595Y3301827D01*
X0830977Y3301704D01*
X0830635Y3301475D01*
X0830041Y3301464D01*
X0829517Y3301814D01*
X0828898Y3301937D01*
X0828280Y3301814D01*
X0827756Y3301464D01*
X0827624Y3301267D01*
X0827023D01*
X0826891Y3301464D01*
X0826367Y3301814D01*
X0825749Y3301937D01*
X0825131Y3301814D01*
X0824607Y3301464D01*
X0824455Y3301237D01*
X0823854D01*
X0823702Y3301464D01*
X0823178Y3301814D01*
X0822560Y3301937D01*
X0822408Y3301907D01*
X0818734Y3305580D01*
X0818898Y3306124D01*
X0819337Y3306417D01*
X0819687Y3306941D01*
X0819810Y3307559D01*
X0819687Y3308178D01*
X0819337Y3308701D01*
X0818813Y3309052D01*
X0818286Y3309156D01*
X0818207Y3309193D01*
X0818153Y3309194D01*
X0818130Y3309197D01*
X0818106Y3309202D01*
X0818082Y3309210D01*
X0818056Y3309221D01*
X0818027Y3309235D01*
X0817994Y3309255D01*
X0817958Y3309281D01*
X0817919Y3309313D01*
X0817863Y3309366D01*
X0817795Y3309392D01*
X0814834Y3312352D01*
X0815026Y3312814D01*
X0815847D01*
X0816237Y3312892D01*
X0816568Y3313113D01*
X0817384Y3313929D01*
X0817451Y3313954D01*
X0817508Y3314008D01*
X0817548Y3314041D01*
X0817585Y3314068D01*
X0817618Y3314088D01*
X0817647Y3314103D01*
X0817673Y3314113D01*
X0817696Y3314120D01*
X0817717Y3314125D01*
X0817738Y3314128D01*
X0817789Y3314130D01*
X0817869Y3314166D01*
X0818394Y3314271D01*
X0818919Y3314621D01*
X0819269Y3315145D01*
X0819392Y3315763D01*
X0819269Y3316381D01*
X0818919Y3316905D01*
X0818474Y3317203D01*
X0818502Y3317551D01*
X0818557Y3317702D01*
X0839365D01*
X0845097Y3311970D01*
X0845122Y3311903D01*
X0845173Y3311848D01*
X0845197Y3311818D01*
X0845206Y3311805D01*
X0845207Y3311783D01*
X0845098Y3311235D01*
X0845221Y3310617D01*
X0845571Y3310093D01*
X0846095Y3309743D01*
X0846713Y3309620D01*
X0847331Y3309743D01*
X0847855Y3310093D01*
X0848205Y3310617D01*
X0848328Y3311235D01*
X0848205Y3311853D01*
X0847855Y3312377D01*
X0847442Y3312654D01*
X0847376Y3312728D01*
X0847272Y3312778D01*
X0847248Y3312792D01*
X0847151Y3312857D01*
X0847116Y3312884D01*
X0846940Y3313037D01*
X0846882Y3313093D01*
X0846812Y3313121D01*
X0840501Y3319432D01*
X0840172Y3319652D01*
X0839784Y3319729D01*
X0815887D01*
X0815499Y3319652D01*
X0815170Y3319432D01*
X0814068Y3318330D01*
X0813848Y3318001D01*
X0813771Y3317613D01*
Y3317420D01*
X0813741Y3317354D01*
X0813739Y3317277D01*
X0813734Y3317226D01*
X0813727Y3317183D01*
X0813718Y3317146D01*
X0813708Y3317115D01*
X0813697Y3317088D01*
X0813685Y3317066D01*
X0813672Y3317046D01*
X0813657Y3317027D01*
X0813621Y3316988D01*
X0813590Y3316906D01*
X0813352Y3316549D01*
X0812807Y3316388D01*
X0811985Y3317209D01*
Y3319228D01*
X0811907Y3319618D01*
X0811686Y3319949D01*
X0809993Y3321642D01*
X0809663Y3321862D01*
X0809272Y3321940D01*
X0807816D01*
X0807426Y3321862D01*
X0807365Y3321822D01*
X0768004D01*
X0766099Y3323727D01*
X0766306Y3324228D01*
X0842608D01*
X0843603Y3322147D01*
D02*
G37*
G36*
X0817489Y3308826D02*
X0817562Y3308766D01*
X0817635Y3308713D01*
X0817710Y3308667D01*
X0817786Y3308629D01*
X0817864Y3308598D01*
X0817942Y3308573D01*
X0818022Y3308556D01*
X0818103Y3308546D01*
X0818185Y3308543D01*
X0817210Y3307569D01*
X0817208Y3307651D01*
X0817198Y3307732D01*
X0817181Y3307812D01*
X0817157Y3307890D01*
X0817125Y3307968D01*
X0817087Y3308044D01*
X0817041Y3308119D01*
X0816988Y3308192D01*
X0816928Y3308265D01*
X0816861Y3308336D01*
X0817418Y3308893D01*
X0817489Y3308826D01*
D02*
G37*
G36*
X0787975Y3308520D02*
X0787984Y3308418D01*
X0787998Y3308320D01*
X0788020Y3308228D01*
X0788047Y3308139D01*
X0788081Y3308055D01*
X0788122Y3307977D01*
X0788168Y3307903D01*
X0788222Y3307833D01*
X0788281Y3307768D01*
X0787858Y3307344D01*
X0787793Y3307404D01*
X0787723Y3307457D01*
X0787649Y3307504D01*
X0787570Y3307544D01*
X0787486Y3307578D01*
X0787398Y3307606D01*
X0787305Y3307627D01*
X0787208Y3307642D01*
X0787106Y3307650D01*
X0786999Y3307653D01*
X0787973Y3308627D01*
X0787975Y3308520D01*
D02*
G37*
G36*
X0735757Y3302912D02*
X0735768Y3302825D01*
X0735788Y3302739D01*
X0735815Y3302655D01*
X0735850Y3302572D01*
X0735893Y3302490D01*
X0735944Y3302409D01*
X0736002Y3302330D01*
X0736068Y3302251D01*
X0736142Y3302175D01*
X0734765D01*
X0734839Y3302251D01*
X0734905Y3302330D01*
X0734963Y3302409D01*
X0735014Y3302490D01*
X0735057Y3302572D01*
X0735092Y3302655D01*
X0735119Y3302739D01*
X0735139Y3302825D01*
X0735150Y3302912D01*
X0735154Y3303000D01*
X0735753D01*
X0735757Y3302912D01*
D02*
G37*
G36*
X0759814Y3300920D02*
X0759732Y3300918D01*
X0759651Y3300908D01*
X0759571Y3300891D01*
X0759493Y3300867D01*
X0759415Y3300835D01*
X0759339Y3300797D01*
X0759264Y3300751D01*
X0759191Y3300698D01*
X0759118Y3300638D01*
X0759047Y3300571D01*
X0758490Y3301128D01*
X0758557Y3301199D01*
X0758617Y3301271D01*
X0758670Y3301345D01*
X0758715Y3301420D01*
X0758754Y3301497D01*
X0758785Y3301574D01*
X0758810Y3301652D01*
X0758827Y3301732D01*
X0758837Y3301813D01*
X0758839Y3301895D01*
X0759814Y3300920D01*
D02*
G37*
G36*
X0823547Y3300230D02*
X0823557Y3300149D01*
X0823574Y3300069D01*
X0823598Y3299991D01*
X0823629Y3299914D01*
X0823668Y3299837D01*
X0823714Y3299763D01*
X0823767Y3299689D01*
X0823827Y3299616D01*
X0823894Y3299545D01*
X0823337Y3298988D01*
X0823266Y3299055D01*
X0823193Y3299115D01*
X0823119Y3299168D01*
X0823044Y3299214D01*
X0822968Y3299252D01*
X0822891Y3299284D01*
X0822812Y3299308D01*
X0822733Y3299325D01*
X0822652Y3299335D01*
X0822570Y3299338D01*
X0823544Y3300312D01*
X0823547Y3300230D01*
D02*
G37*
G36*
X0789971Y3297026D02*
X0789864Y3297024D01*
X0789762Y3297015D01*
X0789665Y3297001D01*
X0789572Y3296979D01*
X0789484Y3296952D01*
X0789400Y3296918D01*
X0789321Y3296877D01*
X0789247Y3296831D01*
X0789177Y3296777D01*
X0789112Y3296718D01*
X0788689Y3297141D01*
X0788748Y3297206D01*
X0788801Y3297276D01*
X0788848Y3297350D01*
X0788889Y3297429D01*
X0788923Y3297512D01*
X0788950Y3297601D01*
X0788972Y3297694D01*
X0788986Y3297791D01*
X0788995Y3297894D01*
X0788997Y3298000D01*
X0789971Y3297026D01*
D02*
G37*
G36*
X0795050Y3290330D02*
X0794968Y3290327D01*
X0794887Y3290317D01*
X0794807Y3290300D01*
X0794729Y3290276D01*
X0794652Y3290245D01*
X0794575Y3290206D01*
X0794500Y3290160D01*
X0794427Y3290107D01*
X0794354Y3290047D01*
X0794283Y3289980D01*
X0793726Y3290537D01*
X0793793Y3290609D01*
X0793853Y3290681D01*
X0793906Y3290755D01*
X0793952Y3290830D01*
X0793990Y3290906D01*
X0794022Y3290983D01*
X0794046Y3291062D01*
X0794063Y3291142D01*
X0794073Y3291222D01*
X0794076Y3291304D01*
X0795050Y3290330D01*
D02*
G37*
G36*
X0796313Y3288876D02*
X0796253Y3288811D01*
X0796200Y3288741D01*
X0796153Y3288667D01*
X0796113Y3288588D01*
X0796079Y3288504D01*
X0796051Y3288416D01*
X0796030Y3288324D01*
X0796015Y3288226D01*
X0796007Y3288124D01*
X0796005Y3288017D01*
X0795030Y3288991D01*
X0795137Y3288993D01*
X0795239Y3289002D01*
X0795337Y3289017D01*
X0795430Y3289038D01*
X0795518Y3289066D01*
X0795602Y3289100D01*
X0795681Y3289140D01*
X0795755Y3289187D01*
X0795824Y3289240D01*
X0795890Y3289299D01*
X0796313Y3288876D01*
D02*
G37*
G36*
X0810224Y3295195D02*
X0800191Y3285162D01*
X0797544D01*
X0797337Y3285662D01*
X0807369Y3295695D01*
X0810017D01*
X0810224Y3295195D01*
D02*
G37*
G36*
X0827546Y3284121D02*
X0827486Y3284177D01*
X0827422Y3284228D01*
X0827353Y3284272D01*
X0827281Y3284310D01*
X0827204Y3284343D01*
X0827123Y3284369D01*
X0827037Y3284390D01*
X0826948Y3284405D01*
X0826854Y3284414D01*
X0826756Y3284417D01*
Y3285204D01*
X0826854Y3285207D01*
X0826948Y3285216D01*
X0827037Y3285231D01*
X0827123Y3285251D01*
X0827204Y3285278D01*
X0827281Y3285310D01*
X0827353Y3285349D01*
X0827422Y3285393D01*
X0827486Y3285443D01*
X0827546Y3285499D01*
Y3284121D01*
D02*
G37*
G36*
X0787516Y3285411D02*
X0787580Y3285361D01*
X0787648Y3285317D01*
X0787721Y3285279D01*
X0787798Y3285246D01*
X0787879Y3285220D01*
X0787964Y3285199D01*
X0788054Y3285184D01*
X0788147Y3285175D01*
X0788245Y3285173D01*
Y3284385D01*
X0788147Y3284382D01*
X0788054Y3284373D01*
X0787964Y3284359D01*
X0787879Y3284338D01*
X0787798Y3284311D01*
X0787721Y3284279D01*
X0787648Y3284240D01*
X0787580Y3284196D01*
X0787516Y3284146D01*
X0787456Y3284090D01*
Y3285468D01*
X0787516Y3285411D01*
D02*
G37*
G36*
X0785953Y3282862D02*
X0786022Y3282809D01*
X0786097Y3282762D01*
X0786176Y3282722D01*
X0786259Y3282688D01*
X0786347Y3282660D01*
X0786440Y3282639D01*
X0786538Y3282624D01*
X0786640Y3282615D01*
X0786747Y3282613D01*
X0785773Y3281639D01*
X0785770Y3281746D01*
X0785762Y3281848D01*
X0785747Y3281945D01*
X0785726Y3282038D01*
X0785698Y3282127D01*
X0785664Y3282210D01*
X0785624Y3282289D01*
X0785577Y3282364D01*
X0785524Y3282433D01*
X0785464Y3282498D01*
X0785888Y3282921D01*
X0785953Y3282862D01*
D02*
G37*
G36*
X0846716Y3278496D02*
X0846725Y3278402D01*
X0846740Y3278313D01*
X0846761Y3278228D01*
X0846787Y3278147D01*
X0846820Y3278070D01*
X0846858Y3277997D01*
X0846902Y3277929D01*
X0846953Y3277864D01*
X0847009Y3277805D01*
X0845631D01*
X0845687Y3277864D01*
X0845737Y3277929D01*
X0845781Y3277997D01*
X0845820Y3278070D01*
X0845852Y3278147D01*
X0845879Y3278228D01*
X0845899Y3278313D01*
X0845914Y3278402D01*
X0845923Y3278496D01*
X0845926Y3278594D01*
X0846713D01*
X0846716Y3278496D01*
D02*
G37*
G36*
X0826737Y3283767D02*
X0826814Y3283765D01*
X0826864Y3283760D01*
X0826908Y3283753D01*
X0826945Y3283744D01*
X0826976Y3283734D01*
X0827002Y3283723D01*
X0827024Y3283711D01*
X0827045Y3283698D01*
X0827063Y3283683D01*
X0827102Y3283647D01*
X0827184Y3283616D01*
X0827631Y3283318D01*
X0828249Y3283195D01*
X0828867Y3283318D01*
X0828938Y3283366D01*
X0829379Y3283130D01*
Y3273892D01*
X0828938Y3273656D01*
X0828867Y3273704D01*
X0828249Y3273827D01*
X0827631Y3273704D01*
X0827107Y3273354D01*
X0826756Y3272830D01*
X0826633Y3272212D01*
X0826756Y3271594D01*
X0827107Y3271070D01*
X0827631Y3270720D01*
X0828249Y3270596D01*
X0828867Y3270720D01*
X0828938Y3270767D01*
X0829379Y3270531D01*
Y3265190D01*
X0829033Y3264843D01*
X0828572Y3265089D01*
X0828575Y3265106D01*
X0828452Y3265725D01*
X0828102Y3266248D01*
X0827578Y3266599D01*
X0826960Y3266722D01*
X0826342Y3266599D01*
X0825818Y3266248D01*
X0825467Y3265725D01*
X0825422Y3265494D01*
X0825351Y3265387D01*
X0825340Y3265330D01*
X0825330Y3265296D01*
X0825318Y3265261D01*
X0825302Y3265225D01*
X0825283Y3265187D01*
X0825260Y3265147D01*
X0825237Y3265113D01*
X0825153Y3265011D01*
X0825104Y3264959D01*
X0825077Y3264890D01*
X0824540Y3264354D01*
X0824321Y3264025D01*
X0824244Y3263637D01*
Y3261314D01*
X0824321Y3260926D01*
X0824540Y3260598D01*
X0836724Y3248415D01*
Y3240287D01*
X0836224Y3239953D01*
X0836123Y3239995D01*
X0798916D01*
X0798725Y3240457D01*
X0813000Y3254733D01*
X0813062Y3254758D01*
X0813134Y3254828D01*
X0813254Y3254939D01*
X0813341Y3255010D01*
X0813357Y3255021D01*
X0813360Y3255023D01*
X0813375Y3255030D01*
X0813378Y3255034D01*
X0813386Y3255038D01*
X0813388Y3255042D01*
X0813782Y3255120D01*
X0814306Y3255471D01*
X0814431Y3255658D01*
X0815033D01*
X0815158Y3255471D01*
X0815682Y3255120D01*
X0816300Y3254998D01*
X0816918Y3255120D01*
X0817442Y3255471D01*
X0817554Y3255639D01*
X0818156D01*
X0818268Y3255471D01*
X0818792Y3255120D01*
X0819410Y3254998D01*
X0820028Y3255120D01*
X0820552Y3255471D01*
X0820903Y3255995D01*
X0821025Y3256613D01*
X0820903Y3257231D01*
X0820552Y3257755D01*
X0820028Y3258105D01*
X0819410Y3258228D01*
X0818792Y3258105D01*
X0818268Y3257755D01*
X0818156Y3257587D01*
X0817554D01*
X0817442Y3257755D01*
X0816918Y3258105D01*
X0816300Y3258228D01*
X0815682Y3258105D01*
X0815158Y3257755D01*
X0815033Y3257568D01*
X0814431D01*
X0814306Y3257755D01*
X0813782Y3258105D01*
X0813164Y3258228D01*
X0812546Y3258105D01*
X0812022Y3257755D01*
X0811672Y3257231D01*
X0811593Y3256837D01*
X0811589Y3256834D01*
X0811585Y3256827D01*
X0811581Y3256824D01*
X0811574Y3256809D01*
X0811572Y3256806D01*
X0811567Y3256799D01*
X0811373Y3256577D01*
X0811309Y3256511D01*
X0811284Y3256449D01*
X0796772Y3241938D01*
X0762257D01*
X0762066Y3242399D01*
X0764438Y3244771D01*
X0764657Y3245100D01*
X0764734Y3245487D01*
Y3254320D01*
X0777499Y3267085D01*
X0777697Y3266997D01*
X0777941Y3266819D01*
X0777942Y3266779D01*
X0777811Y3266117D01*
Y3258720D01*
X0775134Y3256044D01*
X0770611D01*
X0769916Y3255905D01*
X0769327Y3255512D01*
X0768933Y3254922D01*
X0768795Y3254227D01*
X0768933Y3253532D01*
X0769327Y3252943D01*
X0769916Y3252550D01*
X0770611Y3252412D01*
X0774215D01*
X0774603Y3251831D01*
X0775508Y3250926D01*
X0776097Y3250532D01*
X0776792Y3250394D01*
X0777487Y3250532D01*
X0778076Y3250926D01*
X0778470Y3251515D01*
X0778608Y3252210D01*
X0778470Y3252905D01*
X0778076Y3253494D01*
X0777899Y3253672D01*
X0780911Y3256684D01*
X0781305Y3257273D01*
X0781443Y3257968D01*
Y3266117D01*
X0781311Y3266779D01*
X0781315Y3266889D01*
X0781523Y3267279D01*
X0783983D01*
X0785123Y3266140D01*
X0785452Y3265920D01*
X0785839Y3265843D01*
X0813358D01*
X0813745Y3265920D01*
X0814074Y3266140D01*
X0818217Y3270283D01*
X0818437Y3270612D01*
X0818514Y3270999D01*
Y3279084D01*
X0823228Y3283797D01*
X0826671D01*
X0826737Y3283767D01*
D02*
G37*
G36*
X0737307Y3274844D02*
X0737317Y3274763D01*
X0737334Y3274684D01*
X0737358Y3274605D01*
X0737389Y3274528D01*
X0737428Y3274452D01*
X0737473Y3274377D01*
X0737526Y3274303D01*
X0737586Y3274231D01*
X0737653Y3274159D01*
X0737097Y3273602D01*
X0737025Y3273669D01*
X0736953Y3273730D01*
X0736879Y3273782D01*
X0736804Y3273828D01*
X0736728Y3273867D01*
X0736651Y3273898D01*
X0736572Y3273922D01*
X0736492Y3273940D01*
X0736412Y3273949D01*
X0736330Y3273952D01*
X0737304Y3274926D01*
X0737307Y3274844D01*
D02*
G37*
G36*
X0736401Y3271342D02*
X0736411Y3271262D01*
X0736428Y3271184D01*
X0736453Y3271106D01*
X0736484Y3271030D01*
X0736523Y3270954D01*
X0736569Y3270880D01*
X0736622Y3270806D01*
X0736683Y3270733D01*
X0736751Y3270662D01*
X0736185Y3270096D01*
X0736113Y3270164D01*
X0736040Y3270224D01*
X0735967Y3270277D01*
X0735892Y3270323D01*
X0735816Y3270362D01*
X0735740Y3270394D01*
X0735662Y3270418D01*
X0735584Y3270435D01*
X0735504Y3270445D01*
X0735424Y3270448D01*
X0736398Y3271423D01*
X0736401Y3271342D01*
D02*
G37*
G36*
X0826809Y3291807D02*
X0826756Y3291727D01*
X0826633Y3291109D01*
X0826756Y3290491D01*
X0827107Y3289967D01*
X0827334Y3289816D01*
Y3289214D01*
X0827107Y3289063D01*
X0826756Y3288539D01*
X0826633Y3287920D01*
X0826756Y3287302D01*
X0827107Y3286778D01*
X0827275Y3286666D01*
Y3286065D01*
X0827184Y3286004D01*
X0827102Y3285973D01*
X0827063Y3285937D01*
X0827044Y3285922D01*
X0827024Y3285909D01*
X0827002Y3285897D01*
X0826976Y3285886D01*
X0826945Y3285876D01*
X0826908Y3285867D01*
X0826864Y3285860D01*
X0826814Y3285855D01*
X0826737Y3285853D01*
X0826671Y3285823D01*
X0822808D01*
X0822420Y3285746D01*
X0822091Y3285527D01*
X0816784Y3280220D01*
X0816565Y3279891D01*
X0816488Y3279503D01*
Y3271419D01*
X0812938Y3267869D01*
X0786259D01*
X0785294Y3268834D01*
X0785501Y3269334D01*
X0788603D01*
X0788954Y3269404D01*
X0789252Y3269603D01*
X0811896Y3292248D01*
X0826574D01*
X0826809Y3291807D01*
D02*
G37*
G36*
X0826785Y3264138D02*
X0826705Y3264148D01*
X0826627Y3264149D01*
X0826549Y3264142D01*
X0826472Y3264126D01*
X0826396Y3264102D01*
X0826321Y3264069D01*
X0826246Y3264027D01*
X0826172Y3263977D01*
X0826099Y3263918D01*
X0826027Y3263850D01*
X0825574Y3264511D01*
X0825641Y3264582D01*
X0825758Y3264725D01*
X0825808Y3264799D01*
X0825852Y3264874D01*
X0825891Y3264949D01*
X0825924Y3265026D01*
X0825951Y3265104D01*
X0825972Y3265182D01*
X0825988Y3265262D01*
X0826785Y3264138D01*
D02*
G37*
G36*
X0735404Y3260133D02*
X0735322Y3260130D01*
X0735241Y3260120D01*
X0735162Y3260103D01*
X0735083Y3260079D01*
X0735006Y3260048D01*
X0734930Y3260009D01*
X0734855Y3259964D01*
X0734781Y3259911D01*
X0734708Y3259851D01*
X0734637Y3259784D01*
X0734080Y3260340D01*
X0734148Y3260411D01*
X0734207Y3260484D01*
X0734260Y3260558D01*
X0734306Y3260633D01*
X0734345Y3260709D01*
X0734376Y3260786D01*
X0734400Y3260865D01*
X0734417Y3260944D01*
X0734427Y3261025D01*
X0734430Y3261108D01*
X0735404Y3260133D01*
D02*
G37*
G36*
X0737307Y3257205D02*
X0737257Y3257141D01*
X0737212Y3257072D01*
X0737174Y3257000D01*
X0737142Y3256923D01*
X0737115Y3256842D01*
X0737094Y3256756D01*
X0737079Y3256667D01*
X0737071Y3256573D01*
X0737068Y3256475D01*
X0736280D01*
X0736277Y3256573D01*
X0736269Y3256667D01*
X0736254Y3256756D01*
X0736233Y3256842D01*
X0736206Y3256923D01*
X0736174Y3257000D01*
X0736136Y3257072D01*
X0736091Y3257141D01*
X0736041Y3257205D01*
X0735985Y3257265D01*
X0737363D01*
X0737307Y3257205D01*
D02*
G37*
G36*
X0813154Y3255629D02*
X0813124Y3255625D01*
X0813088Y3255613D01*
X0813047Y3255592D01*
X0813000Y3255564D01*
X0812948Y3255527D01*
X0812828Y3255429D01*
X0812686Y3255299D01*
X0812607Y3255221D01*
X0811772Y3256056D01*
X0811850Y3256135D01*
X0812078Y3256397D01*
X0812115Y3256449D01*
X0812144Y3256496D01*
X0812164Y3256537D01*
X0812176Y3256573D01*
X0812180Y3256603D01*
X0813154Y3255629D01*
D02*
G37*
G36*
X0731315Y3253188D02*
X0731248Y3253117D01*
X0731188Y3253044D01*
X0731135Y3252970D01*
X0731089Y3252895D01*
X0731051Y3252819D01*
X0731019Y3252742D01*
X0730995Y3252663D01*
X0730978Y3252584D01*
X0730968Y3252503D01*
X0730965Y3252420D01*
X0729991Y3253395D01*
X0730073Y3253398D01*
X0730154Y3253408D01*
X0730234Y3253425D01*
X0730312Y3253449D01*
X0730389Y3253480D01*
X0730466Y3253519D01*
X0730541Y3253564D01*
X0730614Y3253617D01*
X0730687Y3253677D01*
X0730758Y3253745D01*
X0731315Y3253188D01*
D02*
G37*
G36*
X0745299Y3252187D02*
X0745372Y3252127D01*
X0745445Y3252074D01*
X0745520Y3252029D01*
X0745596Y3251990D01*
X0745674Y3251958D01*
X0745752Y3251934D01*
X0745832Y3251917D01*
X0745913Y3251907D01*
X0745995Y3251905D01*
X0745020Y3250930D01*
X0745018Y3251012D01*
X0745008Y3251093D01*
X0744991Y3251173D01*
X0744967Y3251252D01*
X0744935Y3251329D01*
X0744897Y3251405D01*
X0744851Y3251480D01*
X0744798Y3251554D01*
X0744738Y3251626D01*
X0744671Y3251698D01*
X0745228Y3252254D01*
X0745299Y3252187D01*
D02*
G37*
G36*
X0777490Y3290305D02*
Y3276117D01*
X0777559Y3275766D01*
X0777758Y3275469D01*
X0783422Y3269805D01*
X0783215Y3269305D01*
X0777274D01*
X0776886Y3269228D01*
X0776558Y3269009D01*
X0763005Y3255456D01*
X0762785Y3255127D01*
X0762708Y3254739D01*
Y3248319D01*
X0762208Y3248270D01*
X0762144Y3248594D01*
X0761923Y3248925D01*
X0757142Y3253705D01*
Y3255956D01*
X0757265Y3256038D01*
X0757615Y3256562D01*
X0757738Y3257180D01*
X0757615Y3257798D01*
X0757265Y3258323D01*
X0756741Y3258673D01*
X0756123Y3258796D01*
X0755505Y3258673D01*
X0754981Y3258323D01*
X0754631Y3257798D01*
X0754507Y3257180D01*
X0754631Y3256562D01*
X0754981Y3256038D01*
X0755103Y3255956D01*
Y3254263D01*
X0754641Y3254071D01*
X0751388Y3257324D01*
Y3288808D01*
X0762823Y3300243D01*
X0763043Y3300572D01*
X0763120Y3300960D01*
Y3303967D01*
X0763620Y3304174D01*
X0777490Y3290305D01*
D02*
G37*
G36*
X0758960Y3248536D02*
X0758969Y3248442D01*
X0758984Y3248352D01*
X0759005Y3248267D01*
X0759031Y3248186D01*
X0759064Y3248109D01*
X0759102Y3248037D01*
X0759146Y3247968D01*
X0759197Y3247904D01*
X0759253Y3247844D01*
X0757875D01*
X0757931Y3247904D01*
X0757981Y3247968D01*
X0758025Y3248037D01*
X0758064Y3248109D01*
X0758096Y3248186D01*
X0758123Y3248267D01*
X0758144Y3248352D01*
X0758158Y3248442D01*
X0758167Y3248536D01*
X0758170Y3248634D01*
X0758957D01*
X0758960Y3248536D01*
D02*
G37*
G36*
X0756165Y3248536D02*
X0756174Y3248442D01*
X0756189Y3248352D01*
X0756209Y3248267D01*
X0756236Y3248186D01*
X0756268Y3248109D01*
X0756307Y3248036D01*
X0756351Y3247968D01*
X0756401Y3247904D01*
X0756457Y3247844D01*
X0755079D01*
X0755135Y3247904D01*
X0755186Y3247968D01*
X0755230Y3248036D01*
X0755268Y3248109D01*
X0755301Y3248186D01*
X0755328Y3248267D01*
X0755348Y3248352D01*
X0755363Y3248442D01*
X0755372Y3248536D01*
X0755375Y3248634D01*
X0756162D01*
X0756165Y3248536D01*
D02*
G37*
G36*
X0721283Y3242817D02*
X0721356Y3242757D01*
X0721429Y3242704D01*
X0721504Y3242658D01*
X0721581Y3242620D01*
X0721658Y3242588D01*
X0721736Y3242564D01*
X0721816Y3242547D01*
X0721897Y3242537D01*
X0721979Y3242534D01*
X0721005Y3241560D01*
X0721002Y3241642D01*
X0720992Y3241723D01*
X0720975Y3241803D01*
X0720951Y3241881D01*
X0720919Y3241959D01*
X0720881Y3242035D01*
X0720835Y3242110D01*
X0720782Y3242183D01*
X0720722Y3242256D01*
X0720655Y3242327D01*
X0721212Y3242884D01*
X0721283Y3242817D01*
D02*
G37*
G36*
X0712042Y3230729D02*
X0711965Y3230650D01*
X0711736Y3230388D01*
X0711699Y3230336D01*
X0711671Y3230289D01*
X0711651Y3230248D01*
X0711638Y3230213D01*
X0711635Y3230182D01*
X0710660Y3231157D01*
X0710690Y3231160D01*
X0710726Y3231173D01*
X0710767Y3231193D01*
X0710814Y3231221D01*
X0710866Y3231258D01*
X0710986Y3231356D01*
X0711128Y3231487D01*
X0711207Y3231564D01*
X0712042Y3230729D01*
D02*
G37*
%LPC*%
G36*
X0759469Y3317693D02*
X0758851Y3317570D01*
X0758327Y3317220D01*
X0757977Y3316696D01*
X0757854Y3316078D01*
X0757977Y3315460D01*
X0758327Y3314936D01*
X0758851Y3314585D01*
X0759469Y3314463D01*
X0760087Y3314585D01*
X0760611Y3314936D01*
X0760962Y3315460D01*
X0761085Y3316078D01*
X0760962Y3316696D01*
X0760611Y3317220D01*
X0760087Y3317570D01*
X0759469Y3317693D01*
D02*
G37*
G36*
X0771202Y3308953D02*
X0770583Y3308830D01*
X0770059Y3308480D01*
X0769709Y3307956D01*
X0769586Y3307338D01*
X0769709Y3306720D01*
X0770059Y3306195D01*
X0770583Y3305846D01*
X0771202Y3305722D01*
X0771571Y3305796D01*
X0772002Y3305415D01*
X0772004Y3305411D01*
X0771988Y3305330D01*
X0772111Y3304712D01*
X0772299Y3304430D01*
X0772091Y3303880D01*
X0771843Y3303830D01*
X0771319Y3303480D01*
X0770969Y3302956D01*
X0770846Y3302338D01*
X0770969Y3301720D01*
X0771319Y3301196D01*
X0771843Y3300845D01*
X0772461Y3300723D01*
X0773080Y3300845D01*
X0773534Y3301149D01*
X0773615Y3301181D01*
X0773677Y3301241D01*
X0773722Y3301279D01*
X0773765Y3301310D01*
X0773804Y3301335D01*
X0773839Y3301353D01*
X0773871Y3301367D01*
X0773902Y3301377D01*
X0773931Y3301383D01*
X0773959Y3301387D01*
X0774018Y3301390D01*
X0774085Y3301421D01*
X0774627D01*
X0774978Y3301491D01*
X0775275Y3301690D01*
X0776818Y3303232D01*
X0777694D01*
X0777821Y3303032D01*
X0777910Y3302732D01*
X0777613Y3302287D01*
X0777490Y3301669D01*
X0777613Y3301051D01*
X0777963Y3300526D01*
X0778487Y3300176D01*
X0779105Y3300053D01*
X0779723Y3300176D01*
X0780247Y3300526D01*
X0780597Y3301051D01*
X0780720Y3301669D01*
X0780642Y3302061D01*
X0780647Y3302326D01*
X0780989Y3302601D01*
X0781269Y3302657D01*
X0781793Y3303007D01*
X0782143Y3303531D01*
X0782266Y3304149D01*
X0782143Y3304767D01*
X0781908Y3305118D01*
X0782209Y3305568D01*
X0782422Y3305526D01*
X0783040Y3305648D01*
X0783564Y3305999D01*
X0783914Y3306523D01*
X0784037Y3307141D01*
X0783914Y3307759D01*
X0783564Y3308283D01*
X0783040Y3308633D01*
X0782422Y3308756D01*
X0781804Y3308633D01*
X0781349Y3308329D01*
X0781269Y3308298D01*
X0781207Y3308238D01*
X0781161Y3308199D01*
X0781119Y3308168D01*
X0781080Y3308144D01*
X0781044Y3308126D01*
X0781012Y3308112D01*
X0780982Y3308102D01*
X0780953Y3308096D01*
X0780924Y3308092D01*
X0780865Y3308089D01*
X0780798Y3308058D01*
X0775414D01*
X0775063Y3307988D01*
X0774766Y3307789D01*
X0774766Y3307789D01*
X0774103Y3307126D01*
X0774034Y3307101D01*
X0773990Y3307061D01*
X0773967Y3307043D01*
X0773942Y3307028D01*
X0773914Y3307013D01*
X0773881Y3307000D01*
X0773843Y3306988D01*
X0773798Y3306978D01*
X0773746Y3306970D01*
X0773687Y3306965D01*
X0773600Y3306963D01*
X0773521Y3306929D01*
X0773234Y3306872D01*
X0772802Y3307253D01*
X0772801Y3307257D01*
X0772817Y3307338D01*
X0772694Y3307956D01*
X0772344Y3308480D01*
X0771820Y3308830D01*
X0771202Y3308953D01*
D02*
G37*
G36*
X0746241Y3304229D02*
X0745623Y3304106D01*
X0745099Y3303756D01*
X0744749Y3303231D01*
X0744626Y3302613D01*
X0744749Y3301995D01*
X0745099Y3301471D01*
X0745268Y3301358D01*
X0745588Y3301060D01*
X0745396Y3300717D01*
X0745260Y3300515D01*
X0745138Y3299897D01*
X0745260Y3299279D01*
X0745611Y3298755D01*
X0746135Y3298404D01*
X0746753Y3298281D01*
X0747371Y3298404D01*
X0747895Y3298755D01*
X0748245Y3299279D01*
X0748368Y3299897D01*
X0748245Y3300515D01*
X0747895Y3301039D01*
X0747726Y3301152D01*
X0747405Y3301450D01*
X0747598Y3301793D01*
X0747733Y3301995D01*
X0747856Y3302613D01*
X0747733Y3303231D01*
X0747383Y3303756D01*
X0746859Y3304106D01*
X0746241Y3304229D01*
D02*
G37*
G36*
X0714863Y3290095D02*
X0714245Y3289972D01*
X0713721Y3289622D01*
X0713589Y3289424D01*
X0712988D01*
X0712856Y3289622D01*
X0712331Y3289972D01*
X0711713Y3290095D01*
X0711095Y3289972D01*
X0710571Y3289622D01*
X0710221Y3289098D01*
X0710098Y3288480D01*
X0710221Y3287861D01*
X0710571Y3287337D01*
X0710769Y3287206D01*
Y3286604D01*
X0710571Y3286472D01*
X0710221Y3285948D01*
X0710098Y3285330D01*
X0710221Y3284712D01*
X0710571Y3284188D01*
X0710769Y3284056D01*
Y3283488D01*
X0710666Y3283386D01*
X0710571Y3283323D01*
X0710508Y3283228D01*
X0710405Y3283125D01*
X0709838D01*
X0709706Y3283323D01*
X0709182Y3283673D01*
X0708564Y3283796D01*
X0707946Y3283673D01*
X0707422Y3283323D01*
X0707071Y3282798D01*
X0706949Y3282180D01*
X0707071Y3281562D01*
X0707422Y3281038D01*
X0707946Y3280688D01*
X0708564Y3280565D01*
X0709182Y3280688D01*
X0709706Y3281038D01*
X0709838Y3281236D01*
X0710439D01*
X0710571Y3281038D01*
X0711095Y3280688D01*
X0711713Y3280565D01*
X0712331Y3280688D01*
X0712856Y3281038D01*
X0712988Y3281236D01*
X0713589D01*
X0713721Y3281038D01*
X0714245Y3280688D01*
X0714863Y3280565D01*
X0715481Y3280688D01*
X0716005Y3281038D01*
X0716355Y3281562D01*
X0716478Y3282180D01*
X0716355Y3282798D01*
X0716005Y3283323D01*
X0715808Y3283455D01*
Y3284056D01*
X0716005Y3284188D01*
X0716355Y3284712D01*
X0716478Y3285330D01*
X0716355Y3285948D01*
X0716005Y3286472D01*
X0715808Y3286604D01*
Y3287206D01*
X0716005Y3287337D01*
X0716355Y3287861D01*
X0716478Y3288480D01*
X0716355Y3289098D01*
X0716005Y3289622D01*
X0715481Y3289972D01*
X0714863Y3290095D01*
D02*
G37*
G36*
X0736280Y3286827D02*
X0735662Y3286704D01*
X0735138Y3286354D01*
X0734788Y3285830D01*
X0734665Y3285212D01*
X0734788Y3284594D01*
X0735138Y3284069D01*
X0735662Y3283720D01*
X0736280Y3283596D01*
X0736899Y3283720D01*
X0737423Y3284069D01*
X0737773Y3284594D01*
X0737896Y3285212D01*
X0737773Y3285830D01*
X0737423Y3286354D01*
X0736899Y3286704D01*
X0736280Y3286827D01*
D02*
G37*
G36*
X0704705Y3242536D02*
X0704087Y3242413D01*
X0703563Y3242063D01*
X0703213Y3241539D01*
X0703090Y3240921D01*
X0703213Y3240302D01*
X0703563Y3239778D01*
X0704087Y3239428D01*
X0704705Y3239305D01*
X0705324Y3239428D01*
X0705848Y3239778D01*
X0706198Y3240302D01*
X0706321Y3240921D01*
X0706198Y3241539D01*
X0705848Y3242063D01*
X0705324Y3242413D01*
X0704705Y3242536D01*
D02*
G37*
G36*
X0705572Y3235489D02*
X0704953Y3235366D01*
X0704429Y3235015D01*
X0704079Y3234491D01*
X0703956Y3233873D01*
X0704079Y3233255D01*
X0704429Y3232731D01*
X0704953Y3232381D01*
X0705572Y3232258D01*
X0706190Y3232381D01*
X0706714Y3232731D01*
X0707064Y3233255D01*
X0707187Y3233873D01*
X0707064Y3234491D01*
X0706714Y3235015D01*
X0706190Y3235366D01*
X0705572Y3235489D01*
D02*
G37*
%LPD*%
G36*
X0781719Y3306452D02*
X0781642Y3306526D01*
X0781564Y3306592D01*
X0781484Y3306651D01*
X0781404Y3306701D01*
X0781322Y3306744D01*
X0781239Y3306779D01*
X0781154Y3306807D01*
X0781069Y3306826D01*
X0780982Y3306838D01*
X0780894Y3306842D01*
Y3307440D01*
X0780982Y3307444D01*
X0781069Y3307456D01*
X0781154Y3307475D01*
X0781239Y3307502D01*
X0781322Y3307537D01*
X0781404Y3307581D01*
X0781484Y3307631D01*
X0781564Y3307690D01*
X0781642Y3307756D01*
X0781719Y3307830D01*
Y3306452D01*
D02*
G37*
G36*
X0774895Y3306199D02*
X0774836Y3306134D01*
X0774783Y3306064D01*
X0774736Y3305990D01*
X0774696Y3305911D01*
X0774662Y3305827D01*
X0774634Y3305739D01*
X0774613Y3305646D01*
X0774598Y3305549D01*
X0774589Y3305447D01*
X0774587Y3305340D01*
X0773613Y3306314D01*
X0773720Y3306316D01*
X0773822Y3306325D01*
X0773919Y3306340D01*
X0774012Y3306361D01*
X0774101Y3306388D01*
X0774184Y3306422D01*
X0774263Y3306463D01*
X0774337Y3306509D01*
X0774407Y3306562D01*
X0774472Y3306622D01*
X0774895Y3306199D01*
D02*
G37*
G36*
X0779948Y3303460D02*
X0779871Y3303534D01*
X0779792Y3303600D01*
X0779713Y3303659D01*
X0779632Y3303709D01*
X0779550Y3303752D01*
X0779467Y3303787D01*
X0779383Y3303814D01*
X0779297Y3303834D01*
X0779210Y3303846D01*
X0779122Y3303849D01*
Y3304448D01*
X0779210Y3304452D01*
X0779297Y3304464D01*
X0779383Y3304483D01*
X0779467Y3304510D01*
X0779550Y3304546D01*
X0779632Y3304588D01*
X0779713Y3304639D01*
X0779792Y3304697D01*
X0779871Y3304764D01*
X0779948Y3304838D01*
Y3303460D01*
D02*
G37*
G36*
X0773241Y3302953D02*
X0773320Y3302887D01*
X0773399Y3302828D01*
X0773480Y3302777D01*
X0773562Y3302734D01*
X0773645Y3302699D01*
X0773729Y3302672D01*
X0773815Y3302653D01*
X0773902Y3302641D01*
X0773990Y3302637D01*
Y3302039D01*
X0773902Y3302035D01*
X0773815Y3302023D01*
X0773729Y3302003D01*
X0773645Y3301976D01*
X0773562Y3301941D01*
X0773480Y3301898D01*
X0773399Y3301847D01*
X0773320Y3301789D01*
X0773241Y3301723D01*
X0773164Y3301649D01*
Y3303027D01*
X0773241Y3302953D01*
D02*
G37*
%LPC*%
G36*
X0826202Y3308953D02*
X0825583Y3308830D01*
X0825059Y3308480D01*
X0824875Y3308204D01*
X0824588D01*
X0824064Y3308554D01*
X0823446Y3308678D01*
X0822828Y3308554D01*
X0822303Y3308204D01*
X0821953Y3307681D01*
X0821830Y3307062D01*
X0821953Y3306444D01*
X0822303Y3305920D01*
X0822828Y3305570D01*
X0823446Y3305447D01*
X0824064Y3305570D01*
X0824588Y3305920D01*
X0824638Y3305995D01*
X0825276Y3306050D01*
X0825583Y3305846D01*
X0826202Y3305722D01*
X0826820Y3305846D01*
X0827344Y3306195D01*
X0827694Y3306720D01*
X0827817Y3307338D01*
X0827694Y3307956D01*
X0827344Y3308480D01*
X0826820Y3308830D01*
X0826202Y3308953D01*
D02*
G37*
G36*
X0847973Y3229780D02*
X0847355Y3229657D01*
X0846831Y3229307D01*
X0846786Y3229240D01*
X0846286D01*
X0846241Y3229307D01*
X0845717Y3229657D01*
X0845099Y3229780D01*
X0844481Y3229657D01*
X0843957Y3229307D01*
X0843607Y3228783D01*
X0843484Y3228165D01*
X0843607Y3227546D01*
X0843957Y3227023D01*
X0844481Y3226672D01*
X0844984Y3226572D01*
X0844862Y3225960D01*
X0844985Y3225342D01*
X0845335Y3224818D01*
X0845859Y3224467D01*
X0846477Y3224345D01*
X0847095Y3224467D01*
X0847619Y3224818D01*
X0847970Y3225342D01*
X0848092Y3225960D01*
X0848120Y3225974D01*
X0848684Y3225703D01*
X0848686Y3225696D01*
X0849036Y3225172D01*
X0849560Y3224822D01*
X0850178Y3224699D01*
X0850796Y3224822D01*
X0851320Y3225172D01*
X0851670Y3225696D01*
X0851793Y3226314D01*
X0851670Y3226932D01*
X0851320Y3227456D01*
X0850796Y3227806D01*
X0850178Y3227930D01*
X0850046Y3227903D01*
X0849588Y3228165D01*
X0849466Y3228783D01*
X0849115Y3229307D01*
X0848591Y3229657D01*
X0847973Y3229780D01*
D02*
G37*
G36*
X0855021Y3207969D02*
X0854402Y3207846D01*
X0853878Y3207496D01*
X0853766Y3207328D01*
X0853165D01*
X0853052Y3207496D01*
X0852528Y3207846D01*
X0851910Y3207969D01*
X0851292Y3207846D01*
X0850768Y3207496D01*
X0850675Y3207357D01*
X0850074D01*
X0849982Y3207496D01*
X0849457Y3207846D01*
X0848839Y3207969D01*
X0848221Y3207846D01*
X0847697Y3207496D01*
X0847605Y3207357D01*
X0847003D01*
X0846911Y3207496D01*
X0846387Y3207846D01*
X0845769Y3207969D01*
X0845150Y3207846D01*
X0844626Y3207496D01*
X0844534Y3207357D01*
X0843932D01*
X0843840Y3207496D01*
X0843316Y3207846D01*
X0842698Y3207969D01*
X0842080Y3207846D01*
X0841556Y3207496D01*
X0841463Y3207357D01*
X0840862D01*
X0840769Y3207496D01*
X0840245Y3207846D01*
X0839627Y3207969D01*
X0839009Y3207846D01*
X0838485Y3207496D01*
X0838134Y3206972D01*
X0838011Y3206354D01*
X0838134Y3205735D01*
X0838485Y3205211D01*
X0839009Y3204861D01*
X0839627Y3204738D01*
X0840245Y3204861D01*
X0840769Y3205211D01*
X0840862Y3205350D01*
X0841463D01*
X0841556Y3205211D01*
X0842080Y3204861D01*
X0842698Y3204738D01*
X0843316Y3204861D01*
X0843840Y3205211D01*
X0843932Y3205350D01*
X0844534D01*
X0844626Y3205211D01*
X0845150Y3204861D01*
X0845769Y3204738D01*
X0846387Y3204861D01*
X0846911Y3205211D01*
X0847003Y3205350D01*
X0847605D01*
X0847697Y3205211D01*
X0848221Y3204861D01*
X0848839Y3204738D01*
X0849457Y3204861D01*
X0849982Y3205211D01*
X0850074Y3205350D01*
X0850675D01*
X0850768Y3205211D01*
X0851292Y3204861D01*
X0851910Y3204738D01*
X0852528Y3204861D01*
X0853052Y3205211D01*
X0853165Y3205379D01*
X0853766D01*
X0853878Y3205211D01*
X0854402Y3204861D01*
X0855021Y3204738D01*
X0855639Y3204861D01*
X0856163Y3205211D01*
X0856513Y3205735D01*
X0856636Y3206354D01*
X0856513Y3206972D01*
X0856163Y3207496D01*
X0855639Y3207846D01*
X0855021Y3207969D01*
D02*
G37*
G36*
X0766202Y3291323D02*
X0765017Y3291167D01*
X0763913Y3290710D01*
X0762966Y3289983D01*
X0762239Y3289035D01*
X0761781Y3287932D01*
X0761625Y3286747D01*
X0761781Y3285563D01*
X0762239Y3284459D01*
X0762966Y3283511D01*
X0763913Y3282784D01*
X0765017Y3282327D01*
X0766202Y3282171D01*
X0767386Y3282327D01*
X0768490Y3282784D01*
X0769437Y3283511D01*
X0770165Y3284459D01*
X0770622Y3285563D01*
X0770778Y3286747D01*
X0770622Y3287932D01*
X0770165Y3289035D01*
X0769437Y3289983D01*
X0768490Y3290710D01*
X0767386Y3291167D01*
X0766202Y3291323D01*
D02*
G37*
G36*
X0760729Y3271276D02*
X0760111Y3271153D01*
X0759656Y3270849D01*
X0759576Y3270818D01*
X0759514Y3270758D01*
X0759468Y3270719D01*
X0759426Y3270688D01*
X0759387Y3270664D01*
X0759352Y3270645D01*
X0759319Y3270631D01*
X0759289Y3270622D01*
X0759260Y3270615D01*
X0759231Y3270611D01*
X0759172Y3270609D01*
X0759105Y3270578D01*
X0758918D01*
X0758567Y3270508D01*
X0758270Y3270309D01*
X0755199Y3267238D01*
X0755000Y3266941D01*
X0754930Y3266590D01*
X0754976Y3266362D01*
X0754623Y3266009D01*
X0754424Y3265711D01*
X0754354Y3265360D01*
Y3263857D01*
X0754129Y3263707D01*
X0753779Y3263183D01*
X0753656Y3262564D01*
X0753779Y3261946D01*
X0754129Y3261422D01*
X0754653Y3261072D01*
X0755271Y3260949D01*
X0755889Y3261072D01*
X0756413Y3261422D01*
X0756763Y3261946D01*
X0756886Y3262564D01*
X0756763Y3263183D01*
X0756413Y3263707D01*
X0756188Y3263857D01*
Y3264981D01*
X0756810Y3265603D01*
X0756810Y3265603D01*
X0756822Y3265615D01*
X0756822Y3265615D01*
X0757021Y3265912D01*
X0757091Y3266263D01*
X0757045Y3266491D01*
X0759260Y3268706D01*
X0759289Y3268700D01*
X0759319Y3268690D01*
X0759352Y3268676D01*
X0759387Y3268658D01*
X0759426Y3268633D01*
X0759468Y3268602D01*
X0759514Y3268563D01*
X0759576Y3268504D01*
X0759656Y3268472D01*
X0760111Y3268168D01*
X0760729Y3268045D01*
X0761347Y3268168D01*
X0761871Y3268518D01*
X0762221Y3269043D01*
X0762344Y3269661D01*
X0762221Y3270279D01*
X0761871Y3270803D01*
X0761347Y3271153D01*
X0760729Y3271276D01*
D02*
G37*
%LPD*%
G36*
X0760026Y3268972D02*
X0759949Y3269046D01*
X0759871Y3269112D01*
X0759792Y3269170D01*
X0759711Y3269221D01*
X0759629Y3269264D01*
X0759546Y3269299D01*
X0759461Y3269326D01*
X0759376Y3269346D01*
X0759289Y3269358D01*
X0759201Y3269361D01*
Y3269960D01*
X0759289Y3269964D01*
X0759376Y3269975D01*
X0759461Y3269995D01*
X0759546Y3270022D01*
X0759629Y3270057D01*
X0759711Y3270100D01*
X0759792Y3270151D01*
X0759871Y3270209D01*
X0759949Y3270275D01*
X0760026Y3270350D01*
Y3268972D01*
D02*
G37*
D10*
X0860201Y3249482D02*
X0863958Y3245724D01*
X0860201Y3249482D02*
Y3274244D01*
X0853524Y3280920D02*
X0860201Y3274244D01*
X0853524Y3280920D02*
Y3284405D01*
X0850749Y3287180D02*
X0853524Y3284405D01*
X0852201Y3246299D02*
Y3275570D01*
Y3246299D02*
X0857737Y3240763D01*
X0850670Y3277102D02*
X0852201Y3275570D01*
X0850670Y3277102D02*
Y3277102D01*
X0859705Y3229977D02*
X0863958D01*
X0857737Y3231944D02*
X0859705Y3229977D01*
X0857737Y3231944D02*
Y3240763D01*
X0855954Y3282259D02*
Y3284908D01*
X0848013Y3292850D02*
X0855954Y3284908D01*
X0848013Y3292850D02*
Y3293873D01*
X0832068Y3261708D02*
Y3292810D01*
X0830021Y3294857D02*
X0832068Y3292810D01*
X0811320Y3294857D02*
X0830021D01*
X0832068Y3261708D02*
X0854469Y3239306D01*
X0861713Y3255844D02*
X0863958Y3253599D01*
X0861713Y3255844D02*
Y3275251D01*
X0855954Y3281010D02*
X0861713Y3275251D01*
X0855954Y3281010D02*
Y3282259D01*
X0854469Y3223795D02*
X0860375Y3217889D01*
X0854469Y3223795D02*
Y3239306D01*
X0837737Y3235291D02*
Y3248834D01*
X0744469Y3242653D02*
X0760887D01*
X0736674Y3250448D02*
X0744469Y3242653D01*
X0760887D02*
X0763721Y3245487D01*
X0716044Y3247495D02*
Y3270212D01*
Y3247495D02*
X0721989Y3241550D01*
X0824757Y3298125D02*
X0843761D01*
X0806950Y3296708D02*
X0842816D01*
X0800611Y3284149D02*
X0811320Y3294857D01*
X0843761Y3298125D02*
X0848013Y3293873D01*
X0842816Y3296708D02*
X0846320Y3293204D01*
X0796241Y3285999D02*
X0806950Y3296708D01*
X0822560Y3300322D02*
X0824757Y3298125D01*
X0716044Y3270212D02*
X0722461Y3276629D01*
Y3305448D01*
X0733839Y3316826D01*
Y3326236D01*
X0735414Y3327810D01*
X0737855D01*
X0736162Y3325330D02*
X0739469Y3322023D01*
X0737855Y3327810D02*
X0741950Y3323716D01*
X0762698D01*
X0767107Y3319306D01*
X0808761D01*
X0809391Y3318676D01*
Y3316364D02*
Y3318676D01*
Y3316364D02*
X0818195Y3307559D01*
X0807271Y3315611D02*
Y3316590D01*
Y3315611D02*
X0822560Y3300322D01*
X0767225Y3316590D02*
X0807271D01*
X0739469Y3322023D02*
X0761792D01*
X0767225Y3316590D01*
X0815887Y3318716D02*
X0839784D01*
X0814784Y3317613D02*
X0815887Y3318716D01*
X0814784Y3315842D02*
Y3317613D01*
X0826726Y3265106D02*
X0826960D01*
X0825257Y3263637D02*
X0826726Y3265106D01*
X0825257Y3261314D02*
Y3263637D01*
Y3261314D02*
X0837737Y3248834D01*
X0790611Y3284149D02*
X0800611D01*
X0789981Y3284779D02*
X0790611Y3284149D01*
X0786753Y3284779D02*
X0789981D01*
X0785839Y3266856D02*
X0813358D01*
X0817501Y3270999D01*
Y3279503D01*
X0784403Y3268292D02*
X0785839Y3266856D01*
X0777274Y3268292D02*
X0784403D01*
X0763721Y3254739D02*
X0777274Y3268292D01*
X0793564Y3285999D02*
X0796241D01*
X0822808Y3284810D02*
X0828249D01*
X0817501Y3279503D02*
X0822808Y3284810D01*
X0748800Y3290881D02*
X0759824Y3301905D01*
X0748800Y3256236D02*
Y3290881D01*
X0750375Y3289228D02*
X0762107Y3300960D01*
Y3304385D01*
X0750375Y3256905D02*
Y3289228D01*
X0736320Y3274936D02*
X0740768Y3270487D01*
Y3256157D02*
Y3270487D01*
Y3256157D02*
X0746005Y3250920D01*
X0736674Y3250448D02*
Y3257968D01*
X0763721Y3245487D02*
Y3254739D01*
X0755768Y3247141D02*
Y3249267D01*
X0748800Y3256236D02*
X0755768Y3249267D01*
X0748682Y3311629D02*
X0754863D01*
X0762107Y3304385D01*
X0758564Y3247141D02*
Y3248716D01*
X0750375Y3256905D02*
X0758564Y3248716D01*
X0846713Y3311235D02*
Y3311787D01*
X0839784Y3318716D02*
X0846713Y3311787D01*
X0846320Y3277102D02*
Y3293204D01*
X0792422Y3287141D02*
X0793564Y3285999D01*
X0792422Y3287141D02*
Y3288676D01*
X0795060Y3291314D01*
X0733249Y3258952D02*
X0735414Y3261117D01*
X0733249Y3255679D02*
Y3258952D01*
X0729981Y3252411D02*
X0733249Y3255679D01*
D11*
X0755271Y3262564D02*
Y3265360D01*
X0756162Y3266251D01*
X0756174Y3266263D01*
X0755847Y3266590D02*
X0756174Y3266263D01*
X0811516Y3293164D02*
X0829706D01*
X0788603Y3270251D02*
X0811516Y3293164D01*
X0784272Y3270251D02*
X0788603D01*
X0829706Y3293164D02*
X0830296Y3292574D01*
Y3264810D02*
Y3292574D01*
X0828249Y3262763D02*
X0830296Y3264810D01*
X0775414Y3307141D02*
X0782422D01*
X0773603Y3305330D02*
X0775414Y3307141D01*
X0776438Y3304149D02*
X0780650D01*
X0774627Y3302338D02*
X0776438Y3304149D01*
X0772461Y3302338D02*
X0774627D01*
X0768185Y3311117D02*
X0781319D01*
X0786438Y3305999D01*
Y3300960D02*
Y3305999D01*
X0781109Y3295631D02*
X0786438Y3300960D01*
X0781109Y3277141D02*
Y3295631D01*
X0758918Y3269661D02*
X0760729D01*
X0755847Y3266590D02*
X0758918Y3269661D01*
X0778406Y3276117D02*
X0784272Y3270251D01*
X0784548Y3292577D02*
X0789981Y3298010D01*
X0786757Y3281629D02*
X0787147Y3282019D01*
X0795020Y3288007D02*
X0796950Y3289936D01*
X0744666Y3314109D02*
X0754981D01*
X0735454Y3304897D02*
X0744666Y3314109D01*
X0754981D02*
X0778406Y3290684D01*
Y3276117D02*
Y3290684D01*
X0735454Y3301472D02*
Y3304897D01*
X0796950Y3289936D02*
Y3298676D01*
X0786989Y3308637D02*
X0796950Y3298676D01*
X0784548Y3283838D02*
X0786757Y3281629D01*
X0784548Y3283838D02*
Y3292577D01*
D19*
X0750099Y3251236D02*
D03*
X0761438Y3251353D02*
D03*
Y3262416D02*
D03*
X0755271Y3262564D02*
D03*
X0850670Y3277102D02*
D03*
X0850749Y3282180D02*
D03*
Y3287180D02*
D03*
X0855954Y3282259D02*
D03*
X0863681Y3282480D02*
D03*
X0863958Y3229977D02*
D03*
Y3237851D02*
D03*
Y3245724D02*
D03*
Y3253599D02*
D03*
Y3261473D02*
D03*
Y3269347D02*
D03*
X0860375Y3217889D02*
D03*
X0837737Y3235291D02*
D03*
X0849233Y3251078D02*
D03*
X0861220Y3287402D02*
D03*
X0856299Y3297244D02*
D03*
Y3267717D02*
D03*
X0851378Y3297244D02*
D03*
X0846457Y3267717D02*
D03*
X0843996Y3292323D02*
D03*
X0841535Y3287402D02*
D03*
X0843996Y3272638D02*
D03*
X0839075Y3321851D02*
D03*
Y3302166D02*
D03*
Y3292323D02*
D03*
Y3262795D02*
D03*
X0834154Y3321851D02*
D03*
X0829232D02*
D03*
X0824311D02*
D03*
X0819390D02*
D03*
X0814468D02*
D03*
X0807087Y3277559D02*
D03*
X0804626Y3312008D02*
D03*
X0772638Y3287402D02*
D03*
Y3277559D02*
D03*
X0767717Y3297244D02*
D03*
X0770177Y3292323D02*
D03*
Y3282480D02*
D03*
X0767717Y3277559D02*
D03*
X0770177Y3243110D02*
D03*
X0762795Y3356299D02*
D03*
Y3346457D02*
D03*
Y3336614D02*
D03*
Y3297244D02*
D03*
X0765256Y3292323D02*
D03*
X0762795Y3277559D02*
D03*
X0765256Y3243110D02*
D03*
X0760335Y3361221D02*
D03*
X0757874Y3356299D02*
D03*
X0760335Y3351378D02*
D03*
X0757874Y3346457D02*
D03*
X0760335Y3341536D02*
D03*
X0757874Y3336614D02*
D03*
X0760335Y3331693D02*
D03*
Y3282480D02*
D03*
X0757874Y3277559D02*
D03*
X0755413Y3361221D02*
D03*
X0752953Y3356299D02*
D03*
X0755413Y3351378D02*
D03*
X0752953Y3346457D02*
D03*
X0755413Y3341536D02*
D03*
X0752953Y3336614D02*
D03*
X0755413Y3331693D02*
D03*
Y3282480D02*
D03*
X0752953Y3277559D02*
D03*
X0750492Y3361221D02*
D03*
X0748032Y3356299D02*
D03*
X0750492Y3351378D02*
D03*
X0748032Y3346457D02*
D03*
X0750492Y3341536D02*
D03*
X0748032Y3336614D02*
D03*
X0750492Y3331693D02*
D03*
X0748032Y3316929D02*
D03*
X0745571Y3361221D02*
D03*
Y3351378D02*
D03*
X0743110Y3346457D02*
D03*
X0745571Y3341536D02*
D03*
X0743110Y3336614D02*
D03*
X0745571Y3331693D02*
D03*
X0743110Y3316929D02*
D03*
X0745571Y3312008D02*
D03*
X0743110Y3307087D02*
D03*
Y3287402D02*
D03*
X0740650Y3341536D02*
D03*
X0738189Y3336614D02*
D03*
X0740650Y3331693D02*
D03*
X0738189Y3297244D02*
D03*
X0740650Y3282480D02*
D03*
X0735728Y3331693D02*
D03*
X0733268Y3218504D02*
D03*
Y3208662D02*
D03*
X0730807Y3223425D02*
D03*
X0728346Y3218504D02*
D03*
X0730807Y3213583D02*
D03*
X0728346Y3208662D02*
D03*
X0730807Y3203740D02*
D03*
X0725886Y3302166D02*
D03*
Y3223425D02*
D03*
X0723425Y3218504D02*
D03*
X0725886Y3213583D02*
D03*
X0723425Y3208662D02*
D03*
X0725886Y3203740D02*
D03*
X0720965Y3223425D02*
D03*
X0718504Y3218504D02*
D03*
X0720965Y3213583D02*
D03*
X0718504Y3208662D02*
D03*
X0720965Y3203740D02*
D03*
X0718504Y3198819D02*
D03*
X0713583Y3228347D02*
D03*
X0716043Y3223425D02*
D03*
X0713583Y3218504D02*
D03*
X0716043Y3213583D02*
D03*
X0713583Y3208662D02*
D03*
X0716043Y3203740D02*
D03*
X0708661Y3248032D02*
D03*
Y3228347D02*
D03*
X0711122Y3223425D02*
D03*
X0708661Y3218504D02*
D03*
X0711122Y3213583D02*
D03*
X0703740Y3267717D02*
D03*
Y3257874D02*
D03*
Y3248032D02*
D03*
Y3228347D02*
D03*
X0706201Y3223425D02*
D03*
X0846950Y3192062D02*
D03*
Y3195212D02*
D03*
X0850021D02*
D03*
X0852343Y3199188D02*
D03*
Y3201984D02*
D03*
X0710650Y3230172D02*
D03*
X0721989Y3241550D02*
D03*
X0710060Y3236865D02*
D03*
X0736162Y3325330D02*
D03*
X0807271Y3316590D02*
D03*
X0780650Y3304149D02*
D03*
X0772461Y3302338D02*
D03*
X0843892Y3239219D02*
D03*
X0752875Y3267358D02*
D03*
X0760584Y3266983D02*
D03*
X0789981Y3298010D02*
D03*
X0795020Y3288007D02*
D03*
X0806635Y3283598D02*
D03*
X0801713Y3288607D02*
D03*
X0826960Y3265106D02*
D03*
X0828249Y3284810D02*
D03*
X0811556Y3278676D02*
D03*
X0806635Y3273755D02*
D03*
X0828249Y3262763D02*
D03*
X0800544Y3305566D02*
D03*
X0768185Y3311117D02*
D03*
X0735454Y3301472D02*
D03*
X0746005Y3250920D02*
D03*
X0736320Y3274936D02*
D03*
X0818195Y3307559D02*
D03*
X0834076Y3316078D02*
D03*
X0829804Y3313499D02*
D03*
X0829076Y3307732D02*
D03*
X0846713Y3311235D02*
D03*
X0814784Y3315842D02*
D03*
X0817776Y3315763D02*
D03*
X0822560Y3300322D02*
D03*
X0858446Y3289818D02*
D03*
X0846320Y3277102D02*
D03*
X0736674Y3257968D02*
D03*
X0735414Y3261117D02*
D03*
Y3271432D02*
D03*
X0756123Y3257180D02*
D03*
X0781109Y3277141D02*
D03*
X0748682Y3311629D02*
D03*
X0759824Y3301905D02*
D03*
X0755768Y3247141D02*
D03*
X0758564Y3247141D02*
D03*
X0729981Y3252411D02*
D03*
X0726123Y3245482D02*
D03*
X0726084Y3248316D02*
D03*
X0722107Y3261938D02*
D03*
Y3259064D02*
D03*
Y3256190D02*
D03*
X0719233D02*
D03*
Y3259064D02*
D03*
Y3261938D02*
D03*
X0770611Y3254227D02*
D03*
X0776792Y3252210D02*
D03*
X0776664Y3255005D02*
D03*
X0779627Y3266314D02*
D03*
X0760729Y3269661D02*
D03*
X0801713Y3278676D02*
D03*
X0811556Y3268834D02*
D03*
X0801713D02*
D03*
X0806497Y3263913D02*
D03*
X0821398Y3268834D02*
D03*
X0821398Y3278676D02*
D03*
X0813164Y3256613D02*
D03*
X0795060Y3291314D02*
D03*
X0786753Y3284779D02*
D03*
X0793091Y3309936D02*
D03*
X0773603Y3305330D02*
D03*
X0786757Y3281629D02*
D03*
X0786438Y3305999D02*
D03*
X0782422Y3307141D02*
D03*
X0786989Y3308637D02*
D03*
D21*
X0761202Y3245448D02*
Y3248204D01*
X0756123Y3253283D02*
X0761202Y3248204D01*
X0756123Y3253283D02*
Y3257180D01*
X0738432Y3329204D02*
X0742527Y3325109D01*
X0853595Y3248214D02*
X0863958Y3237851D01*
X0850749Y3280625D02*
X0853548Y3277826D01*
Y3276195D02*
Y3277826D01*
Y3276195D02*
X0853595Y3276148D01*
Y3248214D02*
Y3276148D01*
X0850749Y3280625D02*
Y3282180D01*
X0714469Y3240094D02*
Y3272535D01*
X0710060Y3236865D02*
X0711241D01*
X0714469Y3240094D01*
Y3272535D02*
X0721005Y3279070D01*
Y3305962D01*
X0732446Y3317403D01*
Y3326813D01*
X0734837Y3329204D01*
X0738432D01*
X0742527Y3325109D02*
X0763275D01*
X0767582Y3320802D01*
X0807698D01*
X0807816Y3320921D01*
X0809272D01*
X0810965Y3319228D01*
Y3316787D02*
Y3319228D01*
Y3316787D02*
X0813918Y3313834D01*
X0815847D01*
X0817776Y3315763D01*
X0735414Y3271432D02*
X0738918Y3267928D01*
Y3250566D02*
Y3267928D01*
Y3250566D02*
X0744981Y3244503D01*
X0760257D01*
X0761202Y3245448D01*
D22*
X0860060Y3280605D02*
Y3282810D01*
X0858446Y3284424D02*
X0860060Y3282810D01*
X0858446Y3284424D02*
Y3289818D01*
X0860060Y3280605D02*
X0863958Y3276707D01*
Y3269347D02*
Y3276707D01*
D23*
X0797275Y3240723D02*
X0813164Y3256613D01*
X0733328Y3240723D02*
X0797275D01*
X0730454Y3237849D02*
X0733328Y3240723D01*
X0718328Y3237849D02*
X0730454D01*
X0710650Y3230172D02*
X0718328Y3237849D01*
D24*
X0779627Y3257968D02*
Y3266117D01*
X0776664Y3255005D02*
X0779627Y3257968D01*
X0775887Y3253115D02*
Y3254227D01*
Y3253115D02*
X0776792Y3252210D01*
X0775887Y3254227D02*
X0776664Y3255005D01*
X0770611Y3254227D02*
X0775887D01*
M02*
