M48
;Layer_Color=9474304
;FILE_FORMAT=2:5
INCH
;TYPE=PLATED
T1F00S00C0.01181
T2F00S00C0.04331
;TYPE=NON_PLATED
T3F00S00C0.03917
%
T01
X0703740Y3267717
Y3257874
Y3248032
X0708661
X0711595Y3251432
X0719233Y3256190
X0722107
Y3259064
Y3261938
X0719233
Y3259064
X0729981Y3252411
X0726084Y3248316
X0726123Y3245482
X0726989Y3241983
X0730296Y3242062
X0721989Y3241550
X0710060Y3236865
X0710650Y3230172
X0708661Y3228347
X0713583
X0716043Y3223425
X0720965
X0725886
X0730807
X0733268Y3218504
X0728346
X0723425
X0718504
X0713583
X0708661
X0711122Y3223425
X0706201
X0703740Y3228347
X0705572Y3233873
X0704705Y3240921
X0711122Y3213583
X0716043
X0720965
X0725886
X0730807
X0733268Y3208662
X0728346
X0723425
X0718504
X0713583
X0716043Y3203740
X0720965
X0725886
X0730807
X0718504Y3198819
X0736674Y3257968
X0735414Y3261117
Y3271432
X0736320Y3274936
X0752953Y3277559
X0757874
X0762795
X0767717
X0772638
X0781109Y3277141
X0779627Y3266314
X0776664Y3255005
X0776792Y3252210
X0770611Y3254227
X0770177Y3243110
X0765256
X0758564Y3247141
X0755768Y3247141
X0752698Y3247023
X0749902Y3247102
X0750099Y3251236
X0746005Y3250920
X0761438Y3251353
Y3262416
X0760584Y3266983
X0760729Y3269661
X0752875Y3267358
X0755271Y3262564
X0756123Y3257180
X0786753Y3272180
Y3275330
X0786757Y3278479
X0801713Y3278676
X0807087Y3277559
X0806635Y3273755
X0811556Y3268834
Y3278676
X0821398
X0821398Y3268834
X0826960Y3265106
X0828249Y3262763
Y3272212
X0843996Y3272638
X0846320Y3277102
X0850670
X0846457Y3267717
X0856299
X0863958Y3269347
Y3261473
Y3253599
Y3245724
Y3237851
Y3229977
X0860375Y3217889
X0855021Y3206354
X0851910
X0848839
X0845769
X0842698
X0839627
X0852343Y3201984
Y3199188
X0850021Y3195212
X0846950
Y3192062
X0846477Y3225960
X0845099Y3228165
X0847973
X0850178Y3226314
X0843892Y3239219
X0837737Y3235291
X0849233Y3251078
X0846950Y3257062
X0849666Y3259228
X0856083Y3256708
X0839075Y3262795
X0819410Y3256613
X0816300
X0813164
X0806497Y3263913
X0801713Y3268834
X0806635Y3283598
X0801713Y3288607
X0795020Y3288007
X0795060Y3291314
X0789981Y3298010
X0789233Y3301039
X0786438Y3305999
X0786989Y3308637
X0782422Y3307141
X0793091Y3309936
X0800544Y3305566
X0804626Y3312008
X0807271Y3316590
X0814784Y3315842
X0817776Y3315763
X0819390Y3321851
X0824311
X0829232
X0834154
X0839075
X0834076Y3316078
X0829804Y3313499
X0829076Y3307732
X0826202Y3307338
X0823446Y3307062
X0818195Y3307559
X0819450Y3300322
X0822560
X0825749
X0828898
X0831595Y3300212
X0839075Y3302166
Y3292323
X0843996
X0841535Y3287402
X0850749Y3287180
Y3282180
X0855954Y3282259
X0863681Y3282480
X0861220Y3287402
X0858446Y3289818
X0856299Y3297244
X0851378
X0846713Y3311235
X0828249Y3291109
Y3287920
Y3284810
X0786753Y3284779
X0786757Y3281629
X0814468Y3321851
X0780650Y3304149
X0779105Y3301669
X0772461Y3302338
X0773603Y3305330
X0771202Y3307338
X0768185Y3311117
X0759469Y3316078
X0751084Y3316354
X0748032Y3316929
X0743110
X0745571Y3312008
X0748682Y3311629
X0743110Y3307087
X0746241Y3302613
X0746753Y3299897
X0750493Y3295881
X0762795Y3297244
X0767717
X0770177Y3292323
X0765256
X0772638Y3287402
X0770177Y3282480
X0760335
X0755413
X0740650
X0736280Y3285212
X0730808Y3283991
X0728170
Y3286629
Y3289267
X0730808
Y3286629
X0725532
Y3289267
Y3283991
X0714863Y3285330
X0711713
Y3282180
X0714863
Y3288480
X0711713
X0708564Y3282180
X0725886Y3302166
X0735454Y3301472
X0738189Y3297244
X0743110Y3287402
X0759824Y3301905
X0760335Y3331693
X0755413
X0750492
X0745571
X0740650
X0735728
X0736162Y3325330
X0735257Y3315094
X0738189Y3336614
X0743110
X0748032
X0752953
X0757874
X0762795
X0760335Y3341536
X0755413
X0750492
X0745571
X0740650
X0743110Y3346457
X0748032
X0752953
X0757874
X0762795
X0760335Y3351378
X0755413
X0750492
X0745571
X0748032Y3356299
X0752953
X0757874
X0762795
X0760335Y3361221
X0755413
X0750492
X0745571
T02
X0766202Y3286747
T03
X0849249Y3272180
X0857249Y3272180
X0853249Y3292180
M30
