G04*
G04 #@! TF.GenerationSoftware,Altium Limited,Altium Designer,19.1.9 (167)*
G04*
G04 Layer_Color=32896*
%FSAX25Y25*%
%MOIN*%
G70*
G01*
G75*
%ADD10C,0.00787*%
%ADD11C,0.00598*%
%ADD22C,0.01968*%
%ADD64C,0.00984*%
%ADD114C,0.01000*%
%ADD115C,0.00394*%
%ADD116C,0.00197*%
%ADD117C,0.00591*%
D10*
X0724692Y3255560D02*
G03*
X0724692Y3255560I-0000223J0000000D01*
G01*
X0851705Y3195818D02*
Y3203818D01*
X0837706D02*
X0851705D01*
X0837706Y3195818D02*
Y3203818D01*
Y3195818D02*
X0851705D01*
X0843414Y3228989D02*
Y3240489D01*
X0837914D02*
X0843414D01*
X0837914Y3228989D02*
Y3240489D01*
Y3228989D02*
X0843414D01*
X0855133Y3256430D02*
Y3267930D01*
X0849633D02*
X0855133D01*
X0849633Y3256430D02*
Y3267930D01*
Y3256430D02*
X0855133D01*
X0830709Y3248866D02*
X0834410D01*
X0834450Y3248905D01*
Y3254574D01*
X0834410Y3292921D02*
Y3298314D01*
X0834292Y3298432D02*
X0834410Y3298314D01*
X0830709Y3298432D02*
X0834292D01*
X0788465Y3298393D02*
X0792402D01*
X0788387Y3298314D02*
X0788465Y3298393D01*
X0788387Y3292999D02*
Y3298314D01*
X0788308Y3249062D02*
Y3254574D01*
X0788465Y3248905D02*
X0792442D01*
X0788308Y3249062D02*
X0788465Y3248905D01*
X0825294Y3301281D02*
X0836794D01*
Y3306781D01*
X0825294D02*
X0836794D01*
X0825294Y3301281D02*
Y3306781D01*
X0773209Y3306787D02*
Y3307771D01*
Y3306787D02*
X0774194Y3306787D01*
X0773209Y3315448D02*
X0774194D01*
X0773209D02*
X0773209Y3314464D01*
X0781871D02*
Y3315448D01*
X0780887Y3315448D02*
X0781871Y3315448D01*
X0781871Y3307771D02*
X0781871Y3306787D01*
X0780887D02*
X0781871D01*
X0770656Y3252375D02*
X0776156D01*
X0770656D02*
Y3263875D01*
X0776156D01*
Y3252375D02*
Y3263875D01*
X0776877Y3252336D02*
X0782377D01*
X0776877D02*
Y3263836D01*
X0782377D01*
Y3252336D02*
Y3263836D01*
X0773995Y3246793D02*
Y3252293D01*
X0785495D01*
Y3246793D02*
Y3252293D01*
X0773995Y3246793D02*
X0785495D01*
X0719074Y3274177D02*
X0730574D01*
X0719074Y3268677D02*
Y3274177D01*
Y3268677D02*
X0730574D01*
Y3274177D01*
X0706711Y3262417D02*
X0718211D01*
Y3267917D01*
X0706711D02*
X0718211D01*
X0706711Y3262417D02*
Y3267917D01*
Y3256157D02*
X0718211D01*
Y3261657D01*
X0706711D02*
X0718211D01*
X0706711Y3256157D02*
Y3261657D01*
X0710178Y3242175D02*
X0721595D01*
X0710178D02*
Y3250836D01*
X0721595D01*
Y3242175D02*
Y3250836D01*
X0706711Y3268677D02*
X0718211D01*
Y3274177D01*
X0706711D02*
X0718211D01*
X0706711Y3268677D02*
Y3274177D01*
X0706672Y3274903D02*
Y3280403D01*
X0718172D01*
Y3274903D02*
Y3280403D01*
X0706672Y3274903D02*
X0718172D01*
X0719005Y3274952D02*
Y3282952D01*
Y3274952D02*
X0733005D01*
Y3282952D01*
X0719005D02*
X0733005D01*
X0719770Y3291019D02*
Y3299018D01*
Y3291019D02*
X0733770D01*
Y3299018D01*
X0719770D02*
X0733770D01*
X0813249Y3324621D02*
Y3367928D01*
X0766005Y3324621D02*
X0813249D01*
X0766005Y3367928D02*
X0813249D01*
X0766005Y3324621D02*
Y3367928D01*
X0844068Y3296834D02*
X0850068D01*
X0844068Y3297834D02*
X0850068D01*
Y3296834D02*
Y3309834D01*
X0844068D02*
X0850068D01*
X0844068Y3296834D02*
Y3309834D01*
D11*
X0747449Y3329135D02*
X0747974Y3329660D01*
X0749023D01*
X0749548Y3329135D01*
Y3327036D01*
X0749023Y3326511D01*
X0747974D01*
X0747449Y3327036D01*
X0746399Y3326511D02*
X0745350D01*
X0745875D01*
Y3329660D01*
X0746399Y3329135D01*
X0743776D02*
X0743251Y3329660D01*
X0742201D01*
X0741677Y3329135D01*
Y3327036D01*
X0742201Y3326511D01*
X0743251D01*
X0743776Y3327036D01*
Y3329135D01*
D22*
X0762948Y3328952D02*
G03*
X0762948Y3328952I-0000880J0000000D01*
G01*
D64*
X0733009Y3313834D02*
G03*
X0733009Y3313834I-0000492J0000000D01*
G01*
D114*
X0842695Y3216475D02*
G03*
X0842695Y3216475I-0000473J0000000D01*
G01*
X0834056Y3246503D02*
G03*
X0834056Y3246503I-0000905J0000000D01*
G01*
X0818539Y3309764D02*
G03*
X0818539Y3309764I-0000487J0000000D01*
G01*
X0750966Y3309070D02*
G03*
X0750966Y3309070I-0000473J0000000D01*
G01*
X0782162Y3305054D02*
G03*
X0782162Y3305054I-0000449J0000000D01*
G01*
X0787226Y3305330D02*
G03*
X0787226Y3305330I-0000473J0000000D01*
G01*
X0766389Y3267023D02*
G03*
X0766389Y3267023I-0000424J0000000D01*
G01*
X0753879Y3268361D02*
G03*
X0753879Y3268361I-0000197J0000000D01*
G01*
X0846749Y3294680D02*
X0859749Y3294680D01*
X0846749Y3269680D02*
Y3294680D01*
Y3269680D02*
X0859749Y3269680D01*
Y3294680D01*
D115*
X0792132Y3310380D02*
G03*
X0792132Y3310380I-0000224J0000000D01*
G01*
X0797603Y3309700D02*
G03*
X0797603Y3309700I-0000220J0000000D01*
G01*
X0707698Y3240921D02*
G03*
X0707698Y3240921I-0002993J0000000D01*
G01*
X0708565Y3233873D02*
G03*
X0708565Y3233873I-0002993J0000000D01*
G01*
X0758091Y3288316D02*
X0760454D01*
X0758091D02*
X0759272D01*
X0758091D02*
Y3291078D01*
X0760454Y3288316D02*
Y3291078D01*
Y3287141D02*
Y3288322D01*
X0758091Y3287102D02*
Y3288316D01*
X0841435Y3223561D02*
X0846946D01*
X0841435Y3218050D02*
X0846946D01*
X0836631Y3224506D02*
X0840569D01*
Y3217026D02*
Y3224506D01*
X0836631Y3217026D02*
X0840569D01*
X0836631D02*
Y3224506D01*
X0836671Y3225136D02*
Y3229073D01*
X0844151D01*
Y3225136D02*
Y3229073D01*
X0836671Y3225136D02*
X0844151D01*
X0855529Y3220255D02*
Y3224191D01*
X0848049Y3220255D02*
X0855529D01*
X0848049D02*
Y3224191D01*
X0855529D01*
X0855490Y3215884D02*
Y3219821D01*
X0848009Y3215884D02*
X0855490D01*
X0848009D02*
Y3219821D01*
X0855490D01*
X0855962Y3223561D02*
X0859899D01*
Y3216081D02*
Y3223561D01*
X0855962Y3216081D02*
X0859899D01*
X0855962D02*
Y3223561D01*
X0859961Y3211531D02*
Y3215665D01*
X0852284Y3211531D02*
X0859961D01*
X0852284D02*
Y3215665D01*
X0859961D01*
X0853774Y3231944D02*
X0857711D01*
X0853774D02*
Y3239425D01*
X0857711D01*
Y3231944D02*
Y3239425D01*
X0853225Y3231810D02*
X0853245Y3239684D01*
X0844761Y3231810D02*
Y3239684D01*
X0844883Y3249168D02*
X0849016D01*
X0844883D02*
Y3256846D01*
X0849016D01*
Y3249168D02*
Y3256846D01*
X0844883Y3264956D02*
X0849016D01*
Y3257279D02*
Y3264956D01*
X0844883Y3257279D02*
X0849016D01*
X0844883D02*
Y3264956D01*
X0843833Y3242397D02*
Y3246531D01*
X0851510D01*
Y3242397D02*
Y3246531D01*
X0843833Y3242397D02*
X0851510D01*
X0853524Y3255133D02*
X0857461D01*
Y3247653D02*
Y3255133D01*
X0853524Y3247653D02*
X0857461D01*
X0853524D02*
Y3255133D01*
X0832048Y3315074D02*
X0836182D01*
Y3307397D02*
Y3315074D01*
X0832048Y3307397D02*
X0836182D01*
X0832048D02*
Y3315074D01*
X0819391Y3308755D02*
Y3317023D01*
Y3308755D02*
X0827658D01*
Y3317023D01*
X0819391D02*
X0827658D01*
X0812776Y3307535D02*
X0816713D01*
X0812776D02*
Y3315015D01*
X0816713D01*
Y3307535D02*
Y3315015D01*
X0808584Y3301609D02*
Y3305743D01*
X0816261D01*
Y3301609D02*
Y3305743D01*
X0808584Y3301609D02*
X0816261D01*
X0807757Y3307515D02*
X0811891D01*
X0807757D02*
Y3315192D01*
X0811891D01*
Y3307515D02*
Y3315192D01*
X0795040Y3310862D02*
Y3314995D01*
X0787363Y3310862D02*
X0795040D01*
X0787363D02*
Y3314995D01*
X0795040D01*
X0801685Y3316464D02*
X0803653Y3313054D01*
X0797175Y3309314D02*
X0803653Y3313054D01*
X0795207Y3312724D02*
X0797175Y3309314D01*
X0795207Y3312724D02*
X0801685Y3316464D01*
X0787609Y3304480D02*
Y3309880D01*
Y3304480D02*
X0791409D01*
Y3309880D01*
X0787609D02*
X0791409D01*
X0793052Y3302121D02*
X0797776D01*
X0793052Y3309011D02*
X0797776D01*
X0760670Y3312791D02*
Y3316924D01*
X0768347D01*
Y3312791D02*
Y3316924D01*
X0760670Y3312791D02*
X0768347D01*
X0759036Y3311334D02*
Y3315271D01*
X0751556Y3311334D02*
X0759036D01*
X0751556D02*
Y3315271D01*
X0759036D01*
X0751792Y3303351D02*
Y3309779D01*
X0758485Y3303362D02*
Y3309789D01*
X0751280Y3297909D02*
Y3301846D01*
X0758761D01*
Y3297909D02*
Y3301846D01*
X0751280Y3297909D02*
X0758761D01*
X0759509Y3310389D02*
X0763446D01*
Y3302909D02*
Y3310389D01*
X0759509Y3302909D02*
X0763446D01*
X0759509D02*
Y3310389D01*
X0771891Y3302082D02*
Y3306216D01*
X0764213Y3302082D02*
X0771891D01*
X0764213D02*
Y3306216D01*
X0771891D01*
X0782028Y3298243D02*
X0787540D01*
X0782028Y3303755D02*
X0787540D01*
X0787698Y3293361D02*
Y3297298D01*
X0780217Y3293361D02*
X0787698D01*
X0780217D02*
Y3297298D01*
X0787698D01*
X0785572Y3288992D02*
Y3292928D01*
X0778091Y3288992D02*
X0785572D01*
X0778091D02*
Y3292928D01*
X0785572D01*
X0777579Y3278283D02*
X0781517D01*
X0777579D02*
Y3285763D01*
X0781517D01*
Y3278283D02*
Y3285763D01*
X0781871Y3278283D02*
X0785808D01*
X0781871D02*
Y3285763D01*
X0785808D01*
Y3278283D02*
Y3285763D01*
X0761713Y3266117D02*
X0765060D01*
Y3262771D02*
Y3266117D01*
X0746556D02*
X0749902D01*
X0746556Y3262771D02*
Y3266117D01*
Y3247614D02*
Y3250960D01*
Y3247614D02*
X0749902D01*
X0765060D02*
Y3250960D01*
X0761713Y3247614D02*
X0765060D01*
X0766438Y3263794D02*
X0770375D01*
X0766438D02*
Y3271275D01*
X0770375D01*
Y3263794D02*
Y3271275D01*
X0778583Y3268657D02*
Y3272791D01*
X0770906Y3268657D02*
X0778583D01*
X0770906D02*
Y3272791D01*
X0778583D01*
X0770926Y3264306D02*
Y3268243D01*
X0778406D01*
Y3264306D02*
Y3268243D01*
X0770926Y3264306D02*
X0778406D01*
X0765867Y3252239D02*
Y3259917D01*
Y3252239D02*
X0770001D01*
Y3259917D01*
X0765867D02*
X0770001D01*
X0773505Y3247712D02*
Y3251846D01*
X0765828Y3247712D02*
X0773505D01*
X0765828D02*
Y3251846D01*
X0773505D01*
X0754666Y3273283D02*
X0758603D01*
X0754666Y3267377D02*
X0758603D01*
Y3273283D01*
X0754666Y3267377D02*
Y3273283D01*
X0751116Y3269522D02*
X0753900Y3272306D01*
X0745826Y3274811D02*
X0751116Y3269522D01*
X0745826Y3274811D02*
X0748610Y3277595D01*
X0753900Y3272306D01*
X0745726Y3282266D02*
X0748650Y3279343D01*
X0745726Y3282266D02*
X0751155Y3287695D01*
X0754078Y3284772D01*
X0748650Y3279343D02*
X0754078Y3284772D01*
X0746595Y3302987D02*
X0750532D01*
X0746595D02*
Y3310468D01*
X0750532D01*
Y3302987D02*
Y3310468D01*
X0723032Y3263927D02*
Y3268060D01*
X0730710D01*
Y3263927D02*
Y3268060D01*
X0723032Y3263927D02*
X0730710D01*
X0723072Y3259438D02*
Y3263572D01*
X0730749D01*
Y3259438D02*
Y3263572D01*
X0723072Y3259438D02*
X0730749D01*
X0718505Y3251446D02*
Y3255580D01*
X0710828Y3251446D02*
X0718505D01*
X0710828D02*
Y3255580D01*
X0718505D01*
X0710808Y3237889D02*
X0714745D01*
Y3230409D02*
Y3237889D01*
X0710808Y3230409D02*
X0714745D01*
X0710808D02*
Y3237889D01*
X0716359Y3237889D02*
X0720296D01*
Y3230409D02*
Y3237889D01*
X0716359Y3230409D02*
X0720296D01*
X0716359D02*
Y3237889D01*
X0725887Y3234503D02*
X0730217D01*
X0733761D01*
Y3239228D01*
X0725887D02*
X0733761D01*
X0725887Y3234503D02*
Y3239228D01*
X0729351Y3243519D02*
X0733288D01*
X0729351D02*
Y3250999D01*
X0733288D01*
Y3243519D02*
Y3250999D01*
X0733642Y3243480D02*
X0737579D01*
X0733642D02*
Y3250960D01*
X0737579D01*
Y3243480D02*
Y3250960D01*
X0732028Y3259694D02*
X0735965D01*
Y3252214D02*
Y3259694D01*
X0732028Y3252214D02*
X0735965D01*
X0732028D02*
Y3259694D01*
X0733406Y3269503D02*
X0737343D01*
Y3262023D02*
Y3269503D01*
X0733406Y3262023D02*
X0737343D01*
X0733406D02*
Y3269503D01*
X0734213Y3294523D02*
X0738347D01*
Y3286846D02*
Y3294523D01*
X0734213Y3286846D02*
X0738347D01*
X0734213D02*
Y3294523D01*
X0715001Y3291373D02*
X0719135D01*
X0715001D02*
Y3299051D01*
X0719135D01*
Y3291373D02*
Y3299051D01*
X0734351Y3283361D02*
X0738288D01*
Y3275881D02*
Y3283361D01*
X0734351Y3275881D02*
X0738288D01*
X0734351D02*
Y3283361D01*
X0726689Y3302338D02*
Y3306275D01*
Y3309897D02*
Y3313834D01*
X0736438Y3306806D02*
Y3309365D01*
X0726689Y3313834D02*
X0733977D01*
X0726689Y3302338D02*
X0733977D01*
X0737560Y3315271D02*
Y3319405D01*
X0729883Y3315271D02*
X0737560D01*
X0729883D02*
Y3319405D01*
X0737560D01*
X0740237Y3326058D02*
Y3330192D01*
X0732560Y3326058D02*
X0740237D01*
X0732560D02*
Y3330192D01*
X0740237D01*
X0730453Y3325015D02*
X0737934D01*
X0730453Y3321078D02*
Y3325015D01*
Y3321078D02*
X0737934D01*
Y3325015D01*
D116*
X0725021Y3249891D02*
Y3254970D01*
X0728524D01*
X0725021Y3249891D02*
X0728524D01*
Y3254970D01*
D117*
X0756950Y3297258D02*
Y3294109D01*
X0755375D01*
X0754851Y3294634D01*
Y3296733D01*
X0755375Y3297258D01*
X0756950D01*
X0753801Y3294109D02*
X0752751D01*
X0753276D01*
Y3297258D01*
X0753801Y3296733D01*
X0843551Y3207285D02*
X0844076Y3207809D01*
X0845126D01*
X0845650Y3207285D01*
Y3205185D01*
X0845126Y3204660D01*
X0844076D01*
X0843551Y3205185D01*
X0842502Y3204660D02*
X0841452D01*
X0841977D01*
Y3207809D01*
X0842502Y3207285D01*
X0837779Y3204660D02*
X0839878D01*
X0837779Y3206760D01*
Y3207285D01*
X0838304Y3207809D01*
X0839353D01*
X0839878Y3207285D01*
X0845964Y3209424D02*
Y3211523D01*
Y3210474D01*
X0842816D01*
Y3214672D02*
Y3212573D01*
X0844915Y3214672D01*
X0845440D01*
X0845964Y3214147D01*
Y3213098D01*
X0845440Y3212573D01*
X0837107Y3208558D02*
X0840256D01*
Y3210133D01*
X0839731Y3210657D01*
X0838681D01*
X0838157Y3210133D01*
Y3208558D01*
Y3209608D02*
X0837107Y3210657D01*
Y3211707D02*
Y3212756D01*
Y3212231D01*
X0840256D01*
X0839731Y3211707D01*
Y3214331D02*
X0840256Y3214856D01*
Y3215905D01*
X0839731Y3216430D01*
X0839206D01*
X0838681Y3215905D01*
Y3215380D01*
Y3215905D01*
X0838157Y3216430D01*
X0837632D01*
X0837107Y3215905D01*
Y3214856D01*
X0837632Y3214331D01*
X0852284Y3214808D02*
X0849136D01*
Y3213234D01*
X0849660Y3212709D01*
X0850710D01*
X0851235Y3213234D01*
Y3214808D01*
Y3213759D02*
X0852284Y3212709D01*
Y3211660D02*
Y3210610D01*
Y3211135D01*
X0849136D01*
X0849660Y3211660D01*
X0852284Y3206937D02*
Y3209036D01*
X0850185Y3206937D01*
X0849660D01*
X0849136Y3207462D01*
Y3208511D01*
X0849660Y3209036D01*
X0860769Y3215448D02*
X0863917D01*
Y3217022D01*
X0863392Y3217547D01*
X0862343D01*
X0861818Y3217022D01*
Y3215448D01*
Y3216497D02*
X0860769Y3217547D01*
Y3218597D02*
Y3219646D01*
Y3219122D01*
X0863917D01*
X0863392Y3218597D01*
X0863917Y3223320D02*
Y3221220D01*
X0862343D01*
X0862868Y3222270D01*
Y3222795D01*
X0862343Y3223320D01*
X0861293D01*
X0860769Y3222795D01*
Y3221745D01*
X0861293Y3221220D01*
X0857410Y3210316D02*
X0857934Y3210841D01*
X0858984D01*
X0859509Y3210316D01*
Y3208217D01*
X0858984Y3207692D01*
X0857934D01*
X0857410Y3208217D01*
X0856360Y3207692D02*
X0855311D01*
X0855835D01*
Y3210841D01*
X0856360Y3210316D01*
X0853736Y3207692D02*
X0852687D01*
X0853211D01*
Y3210841D01*
X0853736Y3210316D01*
X0853682Y3228596D02*
Y3225973D01*
X0853157Y3225448D01*
X0852108D01*
X0851583Y3225973D01*
Y3228596D01*
X0850533D02*
X0848434D01*
Y3228072D01*
X0850533Y3225973D01*
Y3225448D01*
X0852619Y3255645D02*
X0849470D01*
Y3254071D01*
X0849995Y3253546D01*
X0851045D01*
X0851569Y3254071D01*
Y3255645D01*
Y3254596D02*
X0852619Y3253546D01*
Y3250397D02*
Y3252496D01*
X0850520Y3250397D01*
X0849995D01*
X0849470Y3250922D01*
Y3251971D01*
X0849995Y3252496D01*
X0852619Y3247248D02*
Y3249348D01*
X0850520Y3247248D01*
X0849995D01*
X0849470Y3247773D01*
Y3248823D01*
X0849995Y3249348D01*
X0784509Y3277337D02*
Y3274713D01*
X0783984Y3274188D01*
X0782934D01*
X0782410Y3274713D01*
Y3277337D01*
X0779786Y3274188D02*
Y3277337D01*
X0781360Y3275763D01*
X0779261D01*
X0823997Y3306786D02*
Y3304162D01*
X0823472Y3303637D01*
X0822423D01*
X0821898Y3304162D01*
Y3306786D01*
X0820848Y3303637D02*
X0819799D01*
X0820323D01*
Y3306786D01*
X0820848Y3306261D01*
X0818224Y3303637D02*
X0817175D01*
X0817700D01*
Y3306786D01*
X0818224Y3306261D01*
X0814496Y3300316D02*
X0815021Y3300841D01*
X0816070D01*
X0816595Y3300316D01*
Y3298217D01*
X0816070Y3297692D01*
X0815021D01*
X0814496Y3298217D01*
X0813447Y3297692D02*
X0812397D01*
X0812922D01*
Y3300841D01*
X0813447Y3300316D01*
X0810823D02*
X0810298Y3300841D01*
X0809249D01*
X0808724Y3300316D01*
Y3299791D01*
X0809249Y3299266D01*
X0808724Y3298742D01*
Y3298217D01*
X0809249Y3297692D01*
X0810298D01*
X0810823Y3298217D01*
Y3298742D01*
X0810298Y3299266D01*
X0810823Y3299791D01*
Y3300316D01*
X0810298Y3299266D02*
X0809249D01*
X0806542Y3309673D02*
X0807067Y3309148D01*
Y3308099D01*
X0806542Y3307574D01*
X0804443D01*
X0803918Y3308099D01*
Y3309148D01*
X0804443Y3309673D01*
X0803918Y3310723D02*
Y3311772D01*
Y3311247D01*
X0807067D01*
X0806542Y3310723D01*
X0803918Y3314921D02*
X0807067D01*
X0805492Y3313346D01*
Y3315445D01*
X0786397Y3306905D02*
X0783774D01*
X0783249Y3307430D01*
Y3308479D01*
X0783774Y3309004D01*
X0786397D01*
Y3312152D02*
X0785873Y3311103D01*
X0784823Y3310053D01*
X0783774D01*
X0783249Y3310578D01*
Y3311628D01*
X0783774Y3312152D01*
X0784298D01*
X0784823Y3311628D01*
Y3310053D01*
X0802460Y3303125D02*
X0799837D01*
X0799312Y3303650D01*
Y3304699D01*
X0799837Y3305224D01*
X0802460D01*
Y3308373D02*
Y3306274D01*
X0800886D01*
X0801411Y3307323D01*
Y3307848D01*
X0800886Y3308373D01*
X0799837D01*
X0799312Y3307848D01*
Y3306799D01*
X0799837Y3306274D01*
X0750611Y3314896D02*
X0748512D01*
X0749562D01*
Y3311747D01*
X0747462D02*
X0746413D01*
X0746938D01*
Y3314896D01*
X0747462Y3314371D01*
X0747107Y3296038D02*
X0750256D01*
Y3297613D01*
X0749731Y3298138D01*
X0748681D01*
X0748157Y3297613D01*
Y3296038D01*
Y3297088D02*
X0747107Y3298138D01*
X0750256Y3301286D02*
X0749731Y3300237D01*
X0748681Y3299187D01*
X0747632D01*
X0747107Y3299712D01*
Y3300761D01*
X0747632Y3301286D01*
X0748157D01*
X0748681Y3300761D01*
Y3299187D01*
X0769705Y3307338D02*
Y3310486D01*
X0768131D01*
X0767606Y3309962D01*
Y3308912D01*
X0768131Y3308387D01*
X0769705D01*
X0768656D02*
X0767606Y3307338D01*
X0766557Y3310486D02*
X0764458D01*
Y3309962D01*
X0766557Y3307862D01*
Y3307338D01*
X0769890Y3300670D02*
X0770415Y3301195D01*
X0771464D01*
X0771989Y3300670D01*
Y3298571D01*
X0771464Y3298046D01*
X0770415D01*
X0769890Y3298571D01*
X0768840Y3298046D02*
X0767791D01*
X0768316D01*
Y3301195D01*
X0768840Y3300670D01*
X0766217Y3298571D02*
X0765692Y3298046D01*
X0764642D01*
X0764117Y3298571D01*
Y3300670D01*
X0764642Y3301195D01*
X0765692D01*
X0766217Y3300670D01*
Y3300145D01*
X0765692Y3299621D01*
X0764117D01*
X0780492Y3298479D02*
Y3300579D01*
Y3299529D01*
X0777343D01*
X0779967Y3301628D02*
X0780492Y3302153D01*
Y3303202D01*
X0779967Y3303727D01*
X0779442D01*
X0778918Y3303202D01*
Y3302678D01*
Y3303202D01*
X0778393Y3303727D01*
X0777868D01*
X0777343Y3303202D01*
Y3302153D01*
X0777868Y3301628D01*
X0779194Y3293834D02*
Y3296983D01*
X0777619D01*
X0777095Y3296458D01*
Y3295408D01*
X0777619Y3294883D01*
X0779194D01*
X0778144D02*
X0777095Y3293834D01*
X0773946D02*
X0776045D01*
X0773946Y3295933D01*
Y3296458D01*
X0774471Y3296983D01*
X0775520D01*
X0776045Y3296458D01*
X0770797Y3296983D02*
X0771847Y3296458D01*
X0772896Y3295408D01*
Y3294358D01*
X0772372Y3293834D01*
X0771322D01*
X0770797Y3294358D01*
Y3294883D01*
X0771322Y3295408D01*
X0772896D01*
X0777186Y3289267D02*
Y3292416D01*
X0775611D01*
X0775087Y3291891D01*
Y3290841D01*
X0775611Y3290316D01*
X0777186D01*
X0776136D02*
X0775087Y3289267D01*
X0771938D02*
X0774037D01*
X0771938Y3291366D01*
Y3291891D01*
X0772463Y3292416D01*
X0773513D01*
X0774037Y3291891D01*
X0768790Y3292416D02*
X0770889D01*
Y3290841D01*
X0769839Y3291366D01*
X0769314D01*
X0768790Y3290841D01*
Y3289792D01*
X0769314Y3289267D01*
X0770364D01*
X0770889Y3289792D01*
X0769312Y3278440D02*
X0772460D01*
Y3280014D01*
X0771936Y3280539D01*
X0770886D01*
X0770361Y3280014D01*
Y3278440D01*
Y3279490D02*
X0769312Y3280539D01*
Y3283688D02*
Y3281589D01*
X0771411Y3283688D01*
X0771936D01*
X0772460Y3283163D01*
Y3282114D01*
X0771936Y3281589D01*
X0772460Y3284737D02*
Y3286836D01*
X0771936D01*
X0769837Y3284737D01*
X0769312D01*
X0773367Y3278283D02*
X0776515D01*
Y3279857D01*
X0775991Y3280382D01*
X0774941D01*
X0774416Y3279857D01*
Y3278283D01*
Y3279332D02*
X0773367Y3280382D01*
Y3283530D02*
Y3281431D01*
X0775466Y3283530D01*
X0775991D01*
X0776515Y3283006D01*
Y3281956D01*
X0775991Y3281431D01*
X0773367Y3286154D02*
X0776515D01*
X0774941Y3284580D01*
Y3286679D01*
X0763799Y3268283D02*
X0761175D01*
X0760650Y3268807D01*
Y3269857D01*
X0761175Y3270382D01*
X0763799D01*
X0760650Y3271431D02*
Y3272481D01*
Y3271956D01*
X0763799D01*
X0763274Y3271431D01*
X0766831Y3272298D02*
X0769980D01*
Y3273873D01*
X0769455Y3274398D01*
X0768406D01*
X0767881Y3273873D01*
Y3272298D01*
Y3273348D02*
X0766831Y3274398D01*
X0769455Y3275447D02*
X0769980Y3275972D01*
Y3277021D01*
X0769455Y3277546D01*
X0768931D01*
X0768406Y3277021D01*
Y3276497D01*
Y3277021D01*
X0767881Y3277546D01*
X0767356D01*
X0766831Y3277021D01*
Y3275972D01*
X0767356Y3275447D01*
X0781425Y3271615D02*
X0781950Y3272140D01*
X0783000D01*
X0783524Y3271615D01*
Y3269516D01*
X0783000Y3268991D01*
X0781950D01*
X0781425Y3269516D01*
X0780376Y3268991D02*
X0779326D01*
X0779851D01*
Y3272140D01*
X0780376Y3271615D01*
X0783249Y3264425D02*
Y3267573D01*
X0781674D01*
X0781150Y3267048D01*
Y3265999D01*
X0781674Y3265474D01*
X0783249D01*
X0782199D02*
X0781150Y3264425D01*
X0780100D02*
X0779051D01*
X0779575D01*
Y3267573D01*
X0780100Y3267048D01*
X0786069Y3257389D02*
X0786594Y3256865D01*
Y3255815D01*
X0786069Y3255291D01*
X0783970D01*
X0783446Y3255815D01*
Y3256865D01*
X0783970Y3257389D01*
X0786594Y3260538D02*
X0786069Y3259489D01*
X0785020Y3258439D01*
X0783970D01*
X0783446Y3258964D01*
Y3260014D01*
X0783970Y3260538D01*
X0784495D01*
X0785020Y3260014D01*
Y3258439D01*
X0758918Y3277770D02*
Y3275146D01*
X0758393Y3274621D01*
X0757344D01*
X0756819Y3275146D01*
Y3277770D01*
X0753671Y3274621D02*
X0755769D01*
X0753671Y3276720D01*
Y3277245D01*
X0754195Y3277770D01*
X0755245D01*
X0755769Y3277245D01*
X0749706Y3270723D02*
Y3267574D01*
X0747607D01*
X0746557D02*
X0745507D01*
X0746032D01*
Y3270723D01*
X0746557Y3270198D01*
X0749496Y3291339D02*
X0750021Y3291864D01*
X0751070D01*
X0751595Y3291339D01*
Y3289241D01*
X0751070Y3288716D01*
X0750021D01*
X0749496Y3289241D01*
X0746348Y3288716D02*
X0748447D01*
X0746348Y3290815D01*
Y3291339D01*
X0746872Y3291864D01*
X0747922D01*
X0748447Y3291339D01*
X0705046Y3262429D02*
X0705571Y3261904D01*
Y3260855D01*
X0705046Y3260330D01*
X0702947D01*
X0702422Y3260855D01*
Y3261904D01*
X0702947Y3262429D01*
X0702422Y3265578D02*
Y3263478D01*
X0704521Y3265578D01*
X0705046D01*
X0705571Y3265053D01*
Y3264003D01*
X0705046Y3263478D01*
Y3266627D02*
X0705571Y3267152D01*
Y3268201D01*
X0705046Y3268726D01*
X0704521D01*
X0703996Y3268201D01*
X0703472Y3268726D01*
X0702947D01*
X0702422Y3268201D01*
Y3267152D01*
X0702947Y3266627D01*
X0703472D01*
X0703996Y3267152D01*
X0704521Y3266627D01*
X0705046D01*
X0703996Y3267152D02*
Y3268201D01*
X0731083Y3258754D02*
Y3256130D01*
X0730559Y3255605D01*
X0729509D01*
X0728984Y3256130D01*
Y3258754D01*
X0727935Y3258229D02*
X0727410Y3258754D01*
X0726361D01*
X0725836Y3258229D01*
Y3257705D01*
X0726361Y3257180D01*
X0725836Y3256655D01*
Y3256130D01*
X0726361Y3255605D01*
X0727410D01*
X0727935Y3256130D01*
Y3256655D01*
X0727410Y3257180D01*
X0727935Y3257705D01*
Y3258229D01*
X0727410Y3257180D02*
X0726361D01*
X0707921Y3254568D02*
X0708446Y3255093D01*
X0709496D01*
X0710020Y3254568D01*
Y3252469D01*
X0709496Y3251944D01*
X0708446D01*
X0707921Y3252469D01*
X0704773Y3251944D02*
X0706872D01*
X0704773Y3254043D01*
Y3254568D01*
X0705298Y3255093D01*
X0706347D01*
X0706872Y3254568D01*
X0701624Y3255093D02*
X0702674Y3254568D01*
X0703723Y3253518D01*
Y3252469D01*
X0703198Y3251944D01*
X0702149D01*
X0701624Y3252469D01*
Y3252994D01*
X0702149Y3253518D01*
X0703723D01*
X0709114Y3245015D02*
X0705965D01*
Y3247114D01*
Y3249738D02*
X0709114D01*
X0707540Y3248164D01*
Y3250262D01*
X0703563Y3243558D02*
Y3245657D01*
Y3244608D01*
X0700414D01*
Y3246707D02*
X0703563D01*
Y3248281D01*
X0703038Y3248806D01*
X0701989D01*
X0701464Y3248281D01*
Y3246707D01*
X0700414Y3251430D02*
X0703563D01*
X0701989Y3249855D01*
Y3251955D01*
X0709803Y3221975D02*
X0708916Y3223878D01*
X0709360Y3222927D01*
X0706506Y3221596D01*
X0705619Y3223499D02*
X0708473Y3224829D01*
X0707807Y3226256D01*
X0707110Y3226510D01*
X0706159Y3226066D01*
X0705905Y3225369D01*
X0706570Y3223942D01*
X0706666Y3227461D02*
X0706920Y3228158D01*
X0706477Y3229110D01*
X0705779Y3229363D01*
X0705304Y3229142D01*
X0705050Y3228444D01*
X0705272Y3227969D01*
X0705050Y3228444D01*
X0704352Y3228698D01*
X0703877Y3228476D01*
X0703623Y3227779D01*
X0704067Y3226828D01*
X0704764Y3226574D01*
X0718013Y3226472D02*
Y3229620D01*
X0716438D01*
X0715914Y3229095D01*
Y3228046D01*
X0716438Y3227521D01*
X0718013D01*
X0716963D02*
X0715914Y3226472D01*
X0714864D02*
X0713814D01*
X0714339D01*
Y3229620D01*
X0714864Y3229095D01*
X0712240Y3226472D02*
X0711191D01*
X0711715D01*
Y3229620D01*
X0712240Y3229095D01*
X0721162Y3230094D02*
X0724311D01*
Y3231668D01*
X0723786Y3232193D01*
X0722737D01*
X0722212Y3231668D01*
Y3230094D01*
Y3231143D02*
X0721162Y3232193D01*
Y3233242D02*
Y3234292D01*
Y3233767D01*
X0724311D01*
X0723786Y3233242D01*
Y3235866D02*
X0724311Y3236391D01*
Y3237440D01*
X0723786Y3237965D01*
X0721687D01*
X0721162Y3237440D01*
Y3236391D01*
X0721687Y3235866D01*
X0723786D01*
X0731556Y3233636D02*
X0729457Y3230487D01*
Y3233636D02*
X0731556Y3230487D01*
X0728407D02*
X0727358D01*
X0727882D01*
Y3233636D01*
X0728407Y3233111D01*
X0723957Y3241983D02*
X0727106D01*
Y3243558D01*
X0726581Y3244083D01*
X0725532D01*
X0725007Y3243558D01*
Y3241983D01*
Y3243033D02*
X0723957Y3244083D01*
X0726581Y3245132D02*
X0727106Y3245657D01*
Y3246706D01*
X0726581Y3247231D01*
X0726056D01*
X0725532Y3246706D01*
Y3246181D01*
Y3246706D01*
X0725007Y3247231D01*
X0724482D01*
X0723957Y3246706D01*
Y3245657D01*
X0724482Y3245132D01*
X0723957Y3248281D02*
Y3249330D01*
Y3248805D01*
X0727106D01*
X0726581Y3248281D01*
X0719811Y3289253D02*
X0720336Y3289778D01*
X0721385D01*
X0721910Y3289253D01*
Y3287154D01*
X0721385Y3286629D01*
X0720336D01*
X0719811Y3287154D01*
X0718762D02*
X0718237Y3286629D01*
X0717187D01*
X0716663Y3287154D01*
Y3289253D01*
X0717187Y3289778D01*
X0718237D01*
X0718762Y3289253D01*
Y3288728D01*
X0718237Y3288203D01*
X0716663D01*
X0715205Y3284135D02*
X0715730Y3284660D01*
X0716779D01*
X0717304Y3284135D01*
Y3282036D01*
X0716779Y3281511D01*
X0715730D01*
X0715205Y3282036D01*
X0712056Y3281511D02*
X0714155D01*
X0712056Y3283610D01*
Y3284135D01*
X0712581Y3284660D01*
X0713631D01*
X0714155Y3284135D01*
X0711007Y3282036D02*
X0710482Y3281511D01*
X0709433D01*
X0708908Y3282036D01*
Y3284135D01*
X0709433Y3284660D01*
X0710482D01*
X0711007Y3284135D01*
Y3283610D01*
X0710482Y3283085D01*
X0708908D01*
X0712961Y3288387D02*
X0713485Y3288911D01*
X0714535D01*
X0715060Y3288387D01*
Y3286288D01*
X0714535Y3285763D01*
X0713485D01*
X0712961Y3286288D01*
X0709812Y3288911D02*
X0711911D01*
Y3287337D01*
X0710862Y3287862D01*
X0710337D01*
X0709812Y3287337D01*
Y3286288D01*
X0710337Y3285763D01*
X0711386D01*
X0711911Y3286288D01*
X0729732Y3286615D02*
X0730257Y3287140D01*
X0731307D01*
X0731832Y3286615D01*
Y3284516D01*
X0731307Y3283991D01*
X0730257D01*
X0729732Y3284516D01*
X0728683Y3286615D02*
X0728158Y3287140D01*
X0727109D01*
X0726584Y3286615D01*
Y3286090D01*
X0727109Y3285566D01*
X0727633D01*
X0727109D01*
X0726584Y3285041D01*
Y3284516D01*
X0727109Y3283991D01*
X0728158D01*
X0728683Y3284516D01*
X0725534Y3286615D02*
X0725010Y3287140D01*
X0723960D01*
X0723435Y3286615D01*
Y3284516D01*
X0723960Y3283991D01*
X0725010D01*
X0725534Y3284516D01*
Y3286615D01*
X0724770Y3302429D02*
X0725295Y3301904D01*
Y3300855D01*
X0724770Y3300330D01*
X0722671D01*
X0722147Y3300855D01*
Y3301904D01*
X0722671Y3302429D01*
X0722147Y3303479D02*
Y3304528D01*
Y3304003D01*
X0725295D01*
X0724770Y3303479D01*
Y3306102D02*
X0725295Y3306627D01*
Y3307677D01*
X0724770Y3308201D01*
X0724246D01*
X0723721Y3307677D01*
Y3307152D01*
Y3307677D01*
X0723196Y3308201D01*
X0722671D01*
X0722147Y3307677D01*
Y3306627D01*
X0722671Y3306102D01*
X0846712Y3310763D02*
X0843564D01*
Y3312337D01*
X0844089Y3312862D01*
X0846188D01*
X0846712Y3312337D01*
Y3310763D01*
X0843564Y3316011D02*
Y3313911D01*
X0845663Y3316011D01*
X0846188D01*
X0846712Y3315486D01*
Y3314436D01*
X0846188Y3313911D01*
X0863786Y3278925D02*
X0864311Y3278400D01*
Y3277351D01*
X0863786Y3276826D01*
X0861687D01*
X0861162Y3277351D01*
Y3278400D01*
X0861687Y3278925D01*
X0864311Y3281549D02*
Y3280499D01*
X0863786Y3279975D01*
X0861687D01*
X0861162Y3280499D01*
Y3281549D01*
X0861687Y3282074D01*
X0863786D01*
X0864311Y3281549D01*
X0861162Y3283123D02*
X0864311D01*
X0861162Y3285222D01*
X0864311D01*
X0861162Y3286272D02*
Y3287321D01*
Y3286797D01*
X0864311D01*
X0863786Y3286272D01*
X0814233Y3360881D02*
X0816332D01*
X0817382Y3361930D01*
X0816332Y3362980D01*
X0814233D01*
X0815807D01*
Y3360881D01*
X0814233Y3366129D02*
Y3364030D01*
X0816332Y3366129D01*
X0816857D01*
X0817382Y3365604D01*
Y3364555D01*
X0816857Y3364030D01*
M02*
