G04*
G04 #@! TF.GenerationSoftware,Altium Limited,Altium Designer,19.1.9 (167)*
G04*
G04 Layer_Color=16711935*
%FSAX25Y25*%
%MOIN*%
G70*
G01*
G75*
%ADD17C,0.04343*%
%ADD34R,0.01968X0.02362*%
%ADD59C,0.04724*%
%ADD68C,0.05906*%
%ADD69R,0.02375X0.02769*%
%ADD70R,0.08674X0.06706*%
%ADD71R,0.04343X0.05918*%
%ADD72R,0.01968X0.01575*%
%ADD73R,0.03162X0.02769*%
%ADD74R,0.02769X0.03162*%
%ADD75R,0.03950X0.03950*%
%ADD76R,0.03162X0.03320*%
%ADD77R,0.01575X0.03150*%
%ADD78R,0.04737X0.02769*%
%ADD79R,0.03320X0.03162*%
%ADD80R,0.06706X0.06706*%
G04:AMPARAMS|DCode=81|XSize=67.06mil|YSize=67.06mil|CornerRadius=9.91mil|HoleSize=0mil|Usage=FLASHONLY|Rotation=90.000|XOffset=0mil|YOffset=0mil|HoleType=Round|Shape=RoundedRectangle|*
%AMROUNDEDRECTD81*
21,1,0.06706,0.04724,0,0,90.0*
21,1,0.04724,0.06706,0,0,90.0*
1,1,0.01981,0.02362,0.02362*
1,1,0.01981,0.02362,-0.02362*
1,1,0.01981,-0.02362,-0.02362*
1,1,0.01981,-0.02362,0.02362*
%
%ADD81ROUNDEDRECTD81*%
%ADD82R,0.07493X0.02769*%
%ADD83R,0.02769X0.07493*%
%ADD84R,0.03950X0.03950*%
%ADD85R,0.01772X0.01772*%
%ADD86R,0.01772X0.01772*%
G04:AMPARAMS|DCode=87|XSize=32.41mil|YSize=30.44mil|CornerRadius=0mil|HoleSize=0mil|Usage=FLASHONLY|Rotation=120.000|XOffset=0mil|YOffset=0mil|HoleType=Round|Shape=Rectangle|*
%AMROTATEDRECTD87*
4,1,4,0.02128,-0.00642,-0.00508,-0.02164,-0.02128,0.00642,0.00508,0.02164,0.02128,-0.00642,0.0*
%
%ADD87ROTATEDRECTD87*%

%ADD88C,0.01417*%
%ADD89R,0.02769X0.01981*%
%ADD90R,0.01981X0.02572*%
%ADD91R,0.04921X0.04921*%
%ADD92R,0.02264X0.01575*%
%ADD93R,0.01575X0.02264*%
%ADD94C,0.01575*%
%ADD95R,0.01981X0.01587*%
G04:AMPARAMS|DCode=96|XSize=32.41mil|YSize=30.44mil|CornerRadius=0mil|HoleSize=0mil|Usage=FLASHONLY|Rotation=45.000|XOffset=0mil|YOffset=0mil|HoleType=Round|Shape=Rectangle|*
%AMROTATEDRECTD96*
4,1,4,-0.00070,-0.02222,-0.02222,-0.00070,0.00070,0.02222,0.02222,0.00070,-0.00070,-0.02222,0.0*
%
%ADD96ROTATEDRECTD96*%

G04:AMPARAMS|DCode=97|XSize=33.2mil|YSize=31.62mil|CornerRadius=0mil|HoleSize=0mil|Usage=FLASHONLY|Rotation=315.000|XOffset=0mil|YOffset=0mil|HoleType=Round|Shape=Rectangle|*
%AMROTATEDRECTD97*
4,1,4,-0.02292,0.00056,-0.00056,0.02292,0.02292,-0.00056,0.00056,-0.02292,-0.02292,0.00056,0.0*
%
%ADD97ROTATEDRECTD97*%

%ADD98R,0.03556X0.07493*%
%ADD99R,0.03162X0.05131*%
%ADD100R,0.04540X0.02690*%
%ADD101C,0.03910*%
%ADD102R,0.05918X0.07887*%
%ADD103C,0.08674*%
G36*
X0852884Y3238014D02*
X0852935Y3238004D01*
X0852985Y3237987D01*
X0853032Y3237964D01*
X0853076Y3237935D01*
X0853109Y3237905D01*
X0853115Y3237900D01*
Y3237900D01*
X0853115D01*
X0853120Y3237894D01*
X0853150Y3237861D01*
X0853179Y3237817D01*
X0853202Y3237770D01*
X0853219Y3237720D01*
X0853229Y3237669D01*
X0853232Y3237617D01*
Y3237617D01*
Y3237617D01*
X0853232Y3234174D01*
X0853233Y3233878D01*
X0853233Y3233878D01*
X0853233Y3233877D01*
X0853231Y3233852D01*
X0853229Y3233826D01*
X0853229Y3233825D01*
X0853229Y3233825D01*
X0853224Y3233799D01*
X0853219Y3233774D01*
X0853219Y3233774D01*
X0853219Y3233773D01*
X0853211Y3233748D01*
X0853203Y3233724D01*
X0853202Y3233724D01*
X0853202Y3233724D01*
X0853191Y3233702D01*
X0853179Y3233677D01*
X0853179Y3233677D01*
X0853179Y3233677D01*
X0853164Y3233654D01*
X0853150Y3233634D01*
X0853150Y3233633D01*
X0853150Y3233633D01*
X0853132Y3233612D01*
X0853116Y3233594D01*
X0853116Y3233594D01*
X0853115Y3233594D01*
X0853098Y3233578D01*
X0853076Y3233559D01*
X0853076Y3233559D01*
X0853076Y3233559D01*
X0853057Y3233546D01*
X0853033Y3233530D01*
X0853033Y3233530D01*
X0853032Y3233530D01*
X0853009Y3233519D01*
X0852986Y3233507D01*
X0852986Y3233507D01*
X0852985Y3233507D01*
X0852958Y3233498D01*
X0852936Y3233490D01*
X0852936Y3233490D01*
X0852936Y3233490D01*
X0852908Y3233485D01*
X0852885Y3233480D01*
X0852885Y3233480D01*
X0852884Y3233480D01*
X0852858Y3233478D01*
X0852833Y3233476D01*
X0852832Y3233476D01*
X0852832Y3233476D01*
X0845156Y3233475D01*
D01*
D01*
X0845156D01*
X0845131Y3233476D01*
X0845104Y3233478D01*
X0845104Y3233478D01*
X0845103Y3233478D01*
X0845079Y3233483D01*
X0845053Y3233488D01*
X0845052Y3233488D01*
X0845052Y3233488D01*
X0845028Y3233496D01*
X0845003Y3233505D01*
X0845003Y3233505D01*
X0845002Y3233505D01*
X0844980Y3233516D01*
X0844956Y3233528D01*
X0844956Y3233528D01*
X0844955Y3233529D01*
X0844933Y3233543D01*
X0844912Y3233557D01*
X0844912Y3233557D01*
X0844911Y3233558D01*
X0844890Y3233576D01*
X0844873Y3233591D01*
X0844872Y3233592D01*
X0844872Y3233592D01*
X0844855Y3233612D01*
X0844838Y3233631D01*
X0844838Y3233631D01*
X0844837Y3233632D01*
X0844823Y3233652D01*
X0844809Y3233674D01*
X0844809Y3233675D01*
X0844808Y3233675D01*
X0844797Y3233698D01*
X0844785Y3233721D01*
X0844785Y3233722D01*
X0844785Y3233722D01*
X0844777Y3233747D01*
X0844769Y3233771D01*
X0844768Y3233771D01*
X0844768Y3233772D01*
X0844763Y3233797D01*
X0844758Y3233822D01*
X0844758Y3233823D01*
X0844758Y3233823D01*
X0844756Y3233848D01*
X0844755Y3233875D01*
X0844754Y3234166D01*
X0844754Y3234167D01*
X0844754Y3234167D01*
X0844753Y3236633D01*
X0844753Y3236633D01*
X0844753Y3236633D01*
X0844755Y3236662D01*
X0844757Y3236685D01*
X0844757Y3236685D01*
X0844757Y3236686D01*
X0844761Y3236709D01*
X0844767Y3236737D01*
X0844767Y3236737D01*
X0844767Y3236737D01*
X0844773Y3236755D01*
X0844783Y3236786D01*
X0844784Y3236786D01*
X0844784Y3236787D01*
X0844795Y3236810D01*
X0844807Y3236833D01*
X0844807Y3236834D01*
X0844807Y3236834D01*
X0844822Y3236857D01*
X0844836Y3236877D01*
X0844836Y3236877D01*
X0844836Y3236877D01*
X0844854Y3236897D01*
X0844870Y3236916D01*
X0844871Y3236916D01*
X0844871Y3236917D01*
X0845856Y3237900D01*
X0845873Y3237915D01*
X0845895Y3237934D01*
X0845895Y3237935D01*
X0845895Y3237935D01*
X0845915Y3237948D01*
X0845939Y3237964D01*
X0845939Y3237964D01*
X0845939Y3237964D01*
X0845960Y3237975D01*
X0845986Y3237987D01*
X0845986Y3237987D01*
X0845986Y3237987D01*
X0846002Y3237992D01*
X0846035Y3238004D01*
X0846036Y3238004D01*
X0846036Y3238004D01*
X0846053Y3238007D01*
X0846087Y3238014D01*
X0846087Y3238014D01*
X0846087Y3238014D01*
X0846110Y3238016D01*
X0846139Y3238018D01*
X0852831Y3238018D01*
X0852832D01*
X0852832D01*
X0852884Y3238014D01*
D02*
G37*
G36*
X0820786Y3310828D02*
X0820811Y3310826D01*
X0820811Y3310826D01*
X0820811D01*
X0820836Y3310821D01*
X0820862Y3310816D01*
X0820862Y3310816D01*
X0820862Y3310816D01*
X0820890Y3310806D01*
X0820912Y3310799D01*
X0820912Y3310799D01*
X0820912Y3310799D01*
X0820942Y3310784D01*
X0820959Y3310776D01*
X0820959Y3310776D01*
X0820959Y3310776D01*
X0820977Y3310764D01*
X0821002Y3310747D01*
X0821002Y3310746D01*
X0821002Y3310746D01*
X0821014Y3310736D01*
X0821042Y3310712D01*
X0821042Y3310712D01*
X0821042Y3310712D01*
X0821387Y3310367D01*
X0821387Y3310367D01*
X0821387Y3310367D01*
X0821421Y3310328D01*
X0821441Y3310299D01*
X0821450Y3310284D01*
X0821450Y3310284D01*
D01*
X0821451Y3310283D01*
X0821474Y3310237D01*
X0821474Y3310234D01*
X0821490Y3310188D01*
X0821497Y3310157D01*
X0821501Y3310136D01*
X0821504Y3310084D01*
Y3310084D01*
Y3310084D01*
X0821504Y3309444D01*
X0821501Y3309392D01*
X0821496Y3309371D01*
X0821490Y3309340D01*
X0821474Y3309291D01*
X0821450Y3309244D01*
D01*
X0821450Y3309244D01*
X0821441Y3309229D01*
X0821421Y3309200D01*
X0821387Y3309161D01*
X0821387Y3309161D01*
X0821387Y3309161D01*
X0821347Y3309126D01*
X0821318Y3309107D01*
X0821304Y3309097D01*
X0821304Y3309097D01*
D01*
X0821257Y3309074D01*
X0821207Y3309057D01*
X0821176Y3309051D01*
X0821155Y3309047D01*
X0821103Y3309043D01*
X0820020D01*
X0819968Y3309047D01*
X0819917Y3309057D01*
X0819867Y3309074D01*
X0819820Y3309097D01*
X0819776Y3309126D01*
X0819737Y3309161D01*
X0819702Y3309200D01*
X0819673Y3309244D01*
X0819650Y3309291D01*
X0819633Y3309340D01*
X0819623Y3309392D01*
X0819620Y3309444D01*
Y3310428D01*
X0819621Y3310456D01*
X0819623Y3310480D01*
X0819623Y3310480D01*
Y3310481D01*
X0819628Y3310506D01*
X0819633Y3310532D01*
X0819633Y3310532D01*
X0819633Y3310532D01*
X0819640Y3310551D01*
X0819650Y3310582D01*
X0819650Y3310582D01*
X0819650Y3310582D01*
X0819661Y3310603D01*
X0819673Y3310629D01*
X0819673Y3310629D01*
X0819673Y3310629D01*
X0819685Y3310646D01*
X0819702Y3310672D01*
X0819702Y3310672D01*
X0819702Y3310672D01*
X0819713Y3310684D01*
X0819737Y3310712D01*
X0819737Y3310712D01*
X0819737Y3310712D01*
X0819765Y3310736D01*
X0819776Y3310746D01*
X0819776Y3310746D01*
X0819776Y3310746D01*
X0819802Y3310764D01*
X0819820Y3310775D01*
X0819820Y3310775D01*
X0819820Y3310775D01*
X0819846Y3310788D01*
X0819867Y3310799D01*
X0819867Y3310799D01*
X0819867Y3310799D01*
X0819898Y3310809D01*
X0819917Y3310815D01*
X0819917Y3310815D01*
X0819917Y3310815D01*
X0819943Y3310821D01*
X0819968Y3310826D01*
X0819968D01*
X0819968Y3310826D01*
X0819993Y3310827D01*
X0820020Y3310829D01*
X0820758Y3310829D01*
X0820759D01*
X0820759D01*
X0820786Y3310828D01*
D02*
G37*
D17*
X0853249Y3292180D02*
D03*
X0849249Y3272180D02*
D03*
X0857249Y3272180D02*
D03*
D34*
X0846159Y3218522D02*
D03*
Y3223089D02*
D03*
X0842222Y3218522D02*
D03*
Y3223089D02*
D03*
X0782816Y3303165D02*
D03*
Y3298834D02*
D03*
X0786753Y3303165D02*
D03*
Y3298834D02*
D03*
D59*
X0704705Y3240921D02*
D03*
X0705572Y3233873D02*
D03*
D68*
X0840493Y3285291D02*
Y3321747D01*
Y3243007D02*
Y3272102D01*
X0784312Y3321747D02*
X0840493D01*
X0742068D02*
X0765493D01*
X0742068Y3243007D02*
X0840493D01*
X0742068D02*
Y3321747D01*
D69*
X0759272Y3291472D02*
D03*
Y3286747D02*
D03*
D70*
X0863958Y3269347D02*
D03*
Y3237851D02*
D03*
Y3261473D02*
D03*
Y3253599D02*
D03*
Y3245724D02*
D03*
Y3229977D02*
D03*
D71*
X0840965Y3199818D02*
D03*
X0848446D02*
D03*
X0729745Y3278952D02*
D03*
X0722265D02*
D03*
X0730510Y3295018D02*
D03*
X0723030D02*
D03*
D72*
X0846159Y3220805D02*
D03*
X0842222D02*
D03*
X0782816Y3300999D02*
D03*
X0786753D02*
D03*
D73*
X0838600Y3222735D02*
D03*
Y3218798D02*
D03*
X0857931Y3221790D02*
D03*
Y3217853D02*
D03*
X0855743Y3233716D02*
D03*
Y3237653D02*
D03*
X0855493Y3253362D02*
D03*
Y3249424D02*
D03*
X0814745Y3309306D02*
D03*
Y3313243D02*
D03*
X0761477Y3308617D02*
D03*
Y3304680D02*
D03*
X0779548Y3280054D02*
D03*
Y3283991D02*
D03*
X0783839Y3280054D02*
D03*
Y3283991D02*
D03*
X0768406Y3265566D02*
D03*
Y3269503D02*
D03*
X0748564Y3304759D02*
D03*
Y3308696D02*
D03*
X0712776Y3236117D02*
D03*
Y3232180D02*
D03*
X0718328Y3236117D02*
D03*
Y3232180D02*
D03*
X0731320Y3245291D02*
D03*
Y3249228D02*
D03*
X0735611Y3245251D02*
D03*
Y3249188D02*
D03*
X0733997Y3257923D02*
D03*
Y3253986D02*
D03*
X0735375Y3267731D02*
D03*
Y3263794D02*
D03*
X0736320Y3281590D02*
D03*
Y3277653D02*
D03*
D74*
X0838443Y3227105D02*
D03*
X0842379D02*
D03*
X0853757Y3222223D02*
D03*
X0849820D02*
D03*
X0853718Y3217853D02*
D03*
X0849781D02*
D03*
X0757265Y3313302D02*
D03*
X0753328D02*
D03*
X0753052Y3299877D02*
D03*
X0756989D02*
D03*
X0785926Y3295330D02*
D03*
X0781989D02*
D03*
X0783800Y3290960D02*
D03*
X0779863D02*
D03*
X0772698Y3266275D02*
D03*
X0776635D02*
D03*
X0732225Y3323046D02*
D03*
X0736162D02*
D03*
D75*
X0840664Y3231787D02*
D03*
Y3237692D02*
D03*
X0852383Y3259228D02*
D03*
Y3265133D02*
D03*
X0773406Y3261078D02*
D03*
Y3255172D02*
D03*
X0779627Y3261039D02*
D03*
Y3255133D02*
D03*
X0847068Y3306984D02*
D03*
Y3300684D02*
D03*
D76*
X0854233Y3213597D02*
D03*
X0858013D02*
D03*
X0849562Y3244464D02*
D03*
X0845782D02*
D03*
X0814312Y3303676D02*
D03*
X0810532D02*
D03*
X0789312Y3312928D02*
D03*
X0793091D02*
D03*
X0766398Y3314857D02*
D03*
X0762619D02*
D03*
X0766162Y3304149D02*
D03*
X0769942D02*
D03*
X0772855Y3270724D02*
D03*
X0776635D02*
D03*
X0767776Y3249779D02*
D03*
X0771556D02*
D03*
X0728761Y3265993D02*
D03*
X0724981D02*
D03*
X0728800Y3261505D02*
D03*
X0725021D02*
D03*
X0712776Y3253513D02*
D03*
X0716556D02*
D03*
X0731832Y3317338D02*
D03*
X0735611D02*
D03*
X0734509Y3328125D02*
D03*
X0738288D02*
D03*
D77*
X0846040Y3239880D02*
D03*
X0848009D02*
D03*
X0849977D02*
D03*
X0851946D02*
D03*
Y3231613D02*
D03*
X0849977D02*
D03*
X0848009D02*
D03*
X0846040D02*
D03*
D78*
X0848993Y3235746D02*
D03*
D79*
X0846950Y3254897D02*
D03*
Y3251117D02*
D03*
Y3259228D02*
D03*
Y3263007D02*
D03*
X0834115Y3309346D02*
D03*
Y3313125D02*
D03*
X0809824Y3313243D02*
D03*
Y3309464D02*
D03*
X0767934Y3257968D02*
D03*
Y3254188D02*
D03*
X0736280Y3288794D02*
D03*
Y3292574D02*
D03*
X0717068Y3297102D02*
D03*
Y3293322D02*
D03*
D80*
X0801713Y3283598D02*
D03*
Y3273755D02*
D03*
Y3263814D02*
D03*
X0811556Y3283598D02*
D03*
Y3273755D02*
D03*
Y3263913D02*
D03*
X0821398Y3283598D02*
D03*
X0821398Y3273755D02*
D03*
D81*
X0821398Y3263913D02*
D03*
D82*
X0833032Y3256424D02*
D03*
Y3259613D02*
D03*
Y3262763D02*
D03*
Y3265913D02*
D03*
Y3269062D02*
D03*
Y3272212D02*
D03*
Y3275361D02*
D03*
Y3278511D02*
D03*
Y3281661D02*
D03*
Y3284810D02*
D03*
Y3287920D02*
D03*
Y3291109D02*
D03*
X0790099Y3291267D02*
D03*
X0790099Y3287956D02*
D03*
Y3284779D02*
D03*
X0790103Y3281629D02*
D03*
X0790103Y3278479D02*
D03*
X0790099Y3275330D02*
D03*
Y3272180D02*
D03*
X0790099Y3269031D02*
D03*
X0790099Y3265881D02*
D03*
X0790099Y3262732D02*
D03*
Y3259582D02*
D03*
Y3256424D02*
D03*
D83*
X0828898Y3296976D02*
D03*
X0825749D02*
D03*
X0822560D02*
D03*
X0819450D02*
D03*
X0816300D02*
D03*
X0813111D02*
D03*
X0809981Y3296983D02*
D03*
X0806831Y3296983D02*
D03*
X0803682Y3296983D02*
D03*
X0800544Y3296983D02*
D03*
X0797387Y3296983D02*
D03*
X0794233D02*
D03*
X0794253Y3250519D02*
D03*
X0797363D02*
D03*
X0800552D02*
D03*
X0803662D02*
D03*
X0806812D02*
D03*
X0810001D02*
D03*
X0813111D02*
D03*
X0816261D02*
D03*
X0819410D02*
D03*
X0822560D02*
D03*
X0825749D02*
D03*
X0828898D02*
D03*
D84*
X0828091Y3304031D02*
D03*
X0833997D02*
D03*
X0782698Y3249543D02*
D03*
X0776792D02*
D03*
X0727776Y3271427D02*
D03*
X0721871D02*
D03*
X0709509Y3265167D02*
D03*
X0715414D02*
D03*
X0709509Y3258907D02*
D03*
X0715414D02*
D03*
X0709509Y3271427D02*
D03*
X0715414D02*
D03*
X0715375Y3277653D02*
D03*
X0709469D02*
D03*
D85*
X0820572Y3309936D02*
D03*
Y3311905D02*
D03*
Y3313873D02*
D03*
Y3315842D02*
D03*
X0826477D02*
D03*
Y3313873D02*
D03*
Y3311905D02*
D03*
Y3309936D02*
D03*
D86*
X0822540Y3315842D02*
D03*
X0824509Y3315842D02*
D03*
Y3309936D02*
D03*
X0822540D02*
D03*
D87*
X0801032Y3313814D02*
D03*
X0797827Y3311964D02*
D03*
D88*
X0788623Y3305409D02*
D03*
X0790394D02*
D03*
X0788623Y3307180D02*
D03*
X0790394D02*
D03*
X0788623Y3308952D02*
D03*
X0790394D02*
D03*
D89*
X0797383Y3303401D02*
D03*
Y3305566D02*
D03*
Y3307732D02*
D03*
X0793446Y3303401D02*
D03*
Y3305566D02*
D03*
Y3307732D02*
D03*
D90*
X0757107Y3309247D02*
D03*
X0755139D02*
D03*
X0753170D02*
D03*
X0757107Y3303932D02*
D03*
X0755139D02*
D03*
X0753170D02*
D03*
D91*
X0777540Y3311117D02*
D03*
D92*
X0781328Y3309149D02*
D03*
X0781328Y3311117D02*
D03*
X0781328Y3313086D02*
D03*
X0773751Y3313086D02*
D03*
X0773751Y3311117D02*
D03*
Y3309149D02*
D03*
D93*
X0779509Y3314905D02*
D03*
X0777540Y3314905D02*
D03*
X0775572Y3314905D02*
D03*
X0775572Y3307330D02*
D03*
X0777540Y3307330D02*
D03*
X0779509Y3307330D02*
D03*
D94*
X0761713Y3264739D02*
D03*
X0759745D02*
D03*
X0757776D02*
D03*
X0755808D02*
D03*
X0753839D02*
D03*
X0751871D02*
D03*
X0749902D02*
D03*
X0747934D02*
D03*
Y3262771D02*
D03*
X0759745Y3260802D02*
D03*
X0757776D02*
D03*
X0755808D02*
D03*
X0753839D02*
D03*
X0751871D02*
D03*
X0747934D02*
D03*
X0759745Y3258834D02*
D03*
X0757776D02*
D03*
X0753839D02*
D03*
X0747934D02*
D03*
X0759745Y3256865D02*
D03*
X0751871D02*
D03*
X0747934D02*
D03*
X0759745Y3254897D02*
D03*
X0757776D02*
D03*
X0753839D02*
D03*
X0751871D02*
D03*
X0747934D02*
D03*
X0759745Y3252929D02*
D03*
X0757776D02*
D03*
X0755808D02*
D03*
X0753839D02*
D03*
X0751871D02*
D03*
X0747934D02*
D03*
Y3250960D02*
D03*
X0761713Y3248991D02*
D03*
X0759745D02*
D03*
X0757776D02*
D03*
X0755808D02*
D03*
X0753839D02*
D03*
X0751871D02*
D03*
X0749902D02*
D03*
X0747934D02*
D03*
X0763682Y3264739D02*
D03*
Y3262771D02*
D03*
Y3260802D02*
D03*
Y3258834D02*
D03*
Y3256865D02*
D03*
Y3254897D02*
D03*
Y3252929D02*
D03*
Y3250960D02*
D03*
Y3248991D02*
D03*
X0727678Y3254222D02*
D03*
Y3252411D02*
D03*
Y3250600D02*
D03*
X0725887Y3254222D02*
D03*
Y3252411D02*
D03*
Y3250600D02*
D03*
D95*
X0757816Y3268361D02*
D03*
Y3270330D02*
D03*
Y3272298D02*
D03*
X0755453D02*
D03*
Y3270330D02*
D03*
Y3268361D02*
D03*
D96*
X0751171Y3272250D02*
D03*
X0748555Y3274867D02*
D03*
D97*
X0751239Y3284855D02*
D03*
X0748566Y3282183D02*
D03*
D98*
X0719036Y3246505D02*
D03*
X0712737D02*
D03*
D99*
X0727068Y3236865D02*
D03*
X0732580D02*
D03*
D100*
X0735335Y3311905D02*
D03*
Y3304267D02*
D03*
X0727698Y3308086D02*
D03*
D101*
X0855749Y3287180D02*
D03*
X0850749D02*
D03*
X0855749Y3282180D02*
D03*
X0850749D02*
D03*
X0855749Y3277180D02*
D03*
X0850749D02*
D03*
D102*
X0770139Y3329346D02*
D03*
X0779587D02*
D03*
X0796910D02*
D03*
X0809902D02*
D03*
X0770139Y3363204D02*
D03*
X0809902D02*
D03*
X0796910D02*
D03*
D103*
X0766202Y3286747D02*
D03*
M02*
