G04*
G04 #@! TF.GenerationSoftware,Altium Limited,Altium Designer,19.1.9 (167)*
G04*
G04 Layer_Color=128*
%FSAX25Y25*%
%MOIN*%
G70*
G01*
G75*
%ADD28R,0.01575X0.01968*%
%ADD29R,0.07874X0.05906*%
%ADD30R,0.03543X0.05118*%
%ADD31R,0.01575X0.01968*%
%ADD32R,0.01575X0.01181*%
%ADD33R,0.02362X0.01968*%
%ADD34R,0.01968X0.02362*%
%ADD35R,0.03150X0.03150*%
%ADD36R,0.02362X0.02520*%
%ADD37R,0.01181X0.02756*%
%ADD38R,0.03937X0.01968*%
%ADD39R,0.02520X0.02362*%
%ADD40R,0.05906X0.05906*%
G04:AMPARAMS|DCode=41|XSize=59.06mil|YSize=59.06mil|CornerRadius=5.91mil|HoleSize=0mil|Usage=FLASHONLY|Rotation=90.000|XOffset=0mil|YOffset=0mil|HoleType=Round|Shape=RoundedRectangle|*
%AMROUNDEDRECTD41*
21,1,0.05906,0.04724,0,0,90.0*
21,1,0.04724,0.05906,0,0,90.0*
1,1,0.01181,0.02362,0.02362*
1,1,0.01181,0.02362,-0.02362*
1,1,0.01181,-0.02362,-0.02362*
1,1,0.01181,-0.02362,0.02362*
%
%ADD41ROUNDEDRECTD41*%
%ADD44R,0.03150X0.03150*%
%ADD45R,0.01181X0.01181*%
%ADD46R,0.01181X0.01181*%
G04:AMPARAMS|DCode=47|XSize=24.41mil|YSize=22.44mil|CornerRadius=0mil|HoleSize=0mil|Usage=FLASHONLY|Rotation=120.000|XOffset=0mil|YOffset=0mil|HoleType=Round|Shape=Rectangle|*
%AMROTATEDRECTD47*
4,1,4,0.01582,-0.00496,-0.00362,-0.01618,-0.01582,0.00496,0.00362,0.01618,0.01582,-0.00496,0.0*
%
%ADD47ROTATEDRECTD47*%

%ADD48C,0.01181*%
%ADD49R,0.01968X0.01181*%
%ADD50R,0.01181X0.01772*%
%ADD55R,0.01181X0.00787*%
G04:AMPARAMS|DCode=56|XSize=24.41mil|YSize=22.44mil|CornerRadius=0mil|HoleSize=0mil|Usage=FLASHONLY|Rotation=45.000|XOffset=0mil|YOffset=0mil|HoleType=Round|Shape=Rectangle|*
%AMROTATEDRECTD56*
4,1,4,-0.00070,-0.01656,-0.01656,-0.00070,0.00070,0.01656,0.01656,0.00070,-0.00070,-0.01656,0.0*
%
%ADD56ROTATEDRECTD56*%

G04:AMPARAMS|DCode=57|XSize=25.2mil|YSize=23.62mil|CornerRadius=0mil|HoleSize=0mil|Usage=FLASHONLY|Rotation=315.000|XOffset=0mil|YOffset=0mil|HoleType=Round|Shape=Rectangle|*
%AMROTATEDRECTD57*
4,1,4,-0.01726,0.00056,-0.00056,0.01726,0.01726,-0.00056,0.00056,-0.01726,-0.01726,0.00056,0.0*
%
%ADD57ROTATEDRECTD57*%

%ADD58R,0.02756X0.06693*%
%ADD60R,0.02362X0.04331*%
%ADD61R,0.03740X0.01890*%
%ADD63R,0.05118X0.07087*%
%ADD104R,0.01968X0.03780*%
%ADD105R,0.01929X0.03740*%
%ADD106R,0.01929X0.03740*%
%ADD107R,0.03740X0.01929*%
%ADD108R,0.01968X0.03780*%
%ADD109R,0.01968X0.03780*%
%ADD110R,0.03543X0.03543*%
%ADD111R,0.01673X0.00984*%
%ADD112R,0.00984X0.01673*%
%ADD113C,0.00039*%
G36*
X0852831Y3234173D02*
X0852832Y3233877D01*
X0845155Y3233876D01*
X0845155Y3234167D01*
X0845154Y3236633D01*
X0846139Y3237617D01*
X0852832Y3237617D01*
X0852831Y3234173D01*
D02*
G37*
G36*
X0821103Y3310084D02*
X0821103Y3309444D01*
X0820020D01*
Y3310428D01*
X0820759Y3310429D01*
X0821103Y3310084D01*
D02*
G37*
D28*
X0759272Y3291472D02*
D03*
Y3286747D02*
D03*
D29*
X0863958Y3269347D02*
D03*
Y3237851D02*
D03*
Y3261473D02*
D03*
Y3253599D02*
D03*
Y3245724D02*
D03*
Y3229977D02*
D03*
D30*
X0840965Y3199818D02*
D03*
X0848446D02*
D03*
X0729745Y3278952D02*
D03*
X0722265D02*
D03*
X0730510Y3295018D02*
D03*
X0723030D02*
D03*
D31*
X0846159Y3218522D02*
D03*
Y3223089D02*
D03*
X0842222Y3218522D02*
D03*
Y3223089D02*
D03*
X0782816Y3303165D02*
D03*
Y3298834D02*
D03*
X0786753Y3303165D02*
D03*
Y3298834D02*
D03*
D32*
X0846159Y3220805D02*
D03*
X0842222D02*
D03*
X0782816Y3300999D02*
D03*
X0786753D02*
D03*
D33*
X0838600Y3222735D02*
D03*
Y3218798D02*
D03*
X0857931Y3221790D02*
D03*
Y3217853D02*
D03*
X0855743Y3233716D02*
D03*
Y3237653D02*
D03*
X0855493Y3253362D02*
D03*
Y3249424D02*
D03*
X0814745Y3309306D02*
D03*
Y3313243D02*
D03*
X0761477Y3308617D02*
D03*
Y3304680D02*
D03*
X0779548Y3280054D02*
D03*
Y3283991D02*
D03*
X0783839Y3280054D02*
D03*
Y3283991D02*
D03*
X0768406Y3265566D02*
D03*
Y3269503D02*
D03*
X0748564Y3304759D02*
D03*
Y3308696D02*
D03*
X0712776Y3236117D02*
D03*
Y3232180D02*
D03*
X0718328Y3236117D02*
D03*
Y3232180D02*
D03*
X0731320Y3245291D02*
D03*
Y3249228D02*
D03*
X0735611Y3245251D02*
D03*
Y3249188D02*
D03*
X0733997Y3257923D02*
D03*
Y3253986D02*
D03*
X0735375Y3267731D02*
D03*
Y3263794D02*
D03*
X0736320Y3281590D02*
D03*
Y3277653D02*
D03*
D34*
X0838443Y3227105D02*
D03*
X0842379D02*
D03*
X0853757Y3222223D02*
D03*
X0849820D02*
D03*
X0853718Y3217853D02*
D03*
X0849781D02*
D03*
X0757265Y3313302D02*
D03*
X0753328D02*
D03*
X0753052Y3299877D02*
D03*
X0756989D02*
D03*
X0785926Y3295330D02*
D03*
X0781989D02*
D03*
X0783800Y3290960D02*
D03*
X0779863D02*
D03*
X0772698Y3266275D02*
D03*
X0776635D02*
D03*
X0732225Y3323046D02*
D03*
X0736162D02*
D03*
D35*
X0840664Y3231787D02*
D03*
Y3237692D02*
D03*
X0852383Y3259228D02*
D03*
Y3265133D02*
D03*
X0773406Y3261078D02*
D03*
Y3255172D02*
D03*
X0779627Y3261039D02*
D03*
Y3255133D02*
D03*
X0847068Y3306984D02*
D03*
Y3300684D02*
D03*
D36*
X0854233Y3213597D02*
D03*
X0858013D02*
D03*
X0849562Y3244464D02*
D03*
X0845782D02*
D03*
X0814312Y3303676D02*
D03*
X0810532D02*
D03*
X0789312Y3312928D02*
D03*
X0793091D02*
D03*
X0766398Y3314857D02*
D03*
X0762619D02*
D03*
X0766162Y3304149D02*
D03*
X0769942D02*
D03*
X0772855Y3270724D02*
D03*
X0776635D02*
D03*
X0767776Y3249779D02*
D03*
X0771556D02*
D03*
X0728761Y3265993D02*
D03*
X0724981D02*
D03*
X0728800Y3261505D02*
D03*
X0725021D02*
D03*
X0712776Y3253513D02*
D03*
X0716556D02*
D03*
X0731832Y3317338D02*
D03*
X0735611D02*
D03*
X0734509Y3328125D02*
D03*
X0738288D02*
D03*
D37*
X0846040Y3239880D02*
D03*
X0848009D02*
D03*
X0849977D02*
D03*
X0851946D02*
D03*
Y3231613D02*
D03*
X0849977D02*
D03*
X0848009D02*
D03*
X0846040D02*
D03*
D38*
X0848993Y3235746D02*
D03*
D39*
X0846950Y3254897D02*
D03*
Y3251117D02*
D03*
Y3259228D02*
D03*
Y3263007D02*
D03*
X0834115Y3309346D02*
D03*
Y3313125D02*
D03*
X0809824Y3313243D02*
D03*
Y3309464D02*
D03*
X0767934Y3257968D02*
D03*
Y3254188D02*
D03*
X0736280Y3288794D02*
D03*
Y3292574D02*
D03*
X0717068Y3297102D02*
D03*
Y3293322D02*
D03*
D40*
X0801713Y3283598D02*
D03*
Y3273755D02*
D03*
Y3263814D02*
D03*
X0811556Y3283598D02*
D03*
Y3273755D02*
D03*
Y3263913D02*
D03*
X0821398Y3283598D02*
D03*
X0821398Y3273755D02*
D03*
D41*
X0821398Y3263913D02*
D03*
D44*
X0828091Y3304031D02*
D03*
X0833997D02*
D03*
X0782698Y3249543D02*
D03*
X0776792D02*
D03*
X0727776Y3271427D02*
D03*
X0721871D02*
D03*
X0709509Y3265167D02*
D03*
X0715414D02*
D03*
X0709509Y3258907D02*
D03*
X0715414D02*
D03*
X0709509Y3271427D02*
D03*
X0715414D02*
D03*
X0715375Y3277653D02*
D03*
X0709469D02*
D03*
D45*
X0820572Y3309936D02*
D03*
Y3311905D02*
D03*
Y3313873D02*
D03*
Y3315842D02*
D03*
X0826477D02*
D03*
Y3313873D02*
D03*
Y3311905D02*
D03*
Y3309936D02*
D03*
D46*
X0822540Y3315842D02*
D03*
X0824509Y3315842D02*
D03*
Y3309936D02*
D03*
X0822540D02*
D03*
D47*
X0801032Y3313814D02*
D03*
X0797827Y3311964D02*
D03*
D48*
X0788623Y3305409D02*
D03*
X0790394D02*
D03*
X0788623Y3307180D02*
D03*
X0790394D02*
D03*
X0788623Y3308952D02*
D03*
X0790394D02*
D03*
X0761713Y3264739D02*
D03*
X0759745D02*
D03*
X0757776D02*
D03*
X0755808D02*
D03*
X0753839D02*
D03*
X0751871D02*
D03*
X0749902D02*
D03*
X0747934D02*
D03*
Y3262771D02*
D03*
X0759745Y3260802D02*
D03*
X0757776D02*
D03*
X0755808D02*
D03*
X0753839D02*
D03*
X0751871D02*
D03*
X0747934D02*
D03*
X0759745Y3258834D02*
D03*
X0757776D02*
D03*
X0753839D02*
D03*
X0747934D02*
D03*
X0759745Y3256865D02*
D03*
X0751871D02*
D03*
X0747934D02*
D03*
X0759745Y3254897D02*
D03*
X0757776D02*
D03*
X0753839D02*
D03*
X0751871D02*
D03*
X0747934D02*
D03*
X0759745Y3252929D02*
D03*
X0757776D02*
D03*
X0755808D02*
D03*
X0753839D02*
D03*
X0751871D02*
D03*
X0747934D02*
D03*
Y3250960D02*
D03*
X0761713Y3248991D02*
D03*
X0759745D02*
D03*
X0757776D02*
D03*
X0755808D02*
D03*
X0753839D02*
D03*
X0751871D02*
D03*
X0749902D02*
D03*
X0747934D02*
D03*
X0763682Y3264739D02*
D03*
Y3262771D02*
D03*
Y3260802D02*
D03*
Y3258834D02*
D03*
Y3256865D02*
D03*
Y3254897D02*
D03*
Y3252929D02*
D03*
Y3250960D02*
D03*
Y3248991D02*
D03*
X0727678Y3254222D02*
D03*
Y3252411D02*
D03*
Y3250600D02*
D03*
X0725887Y3254222D02*
D03*
Y3252411D02*
D03*
Y3250600D02*
D03*
D49*
X0797383Y3303401D02*
D03*
Y3305566D02*
D03*
Y3307732D02*
D03*
X0793446Y3303401D02*
D03*
Y3305566D02*
D03*
Y3307732D02*
D03*
D50*
X0757107Y3309247D02*
D03*
X0755139D02*
D03*
X0753170D02*
D03*
X0757107Y3303932D02*
D03*
X0755139D02*
D03*
X0753170D02*
D03*
D55*
X0757816Y3268361D02*
D03*
Y3270330D02*
D03*
Y3272298D02*
D03*
X0755453D02*
D03*
Y3270330D02*
D03*
Y3268361D02*
D03*
D56*
X0751171Y3272250D02*
D03*
X0748555Y3274867D02*
D03*
D57*
X0751239Y3284855D02*
D03*
X0748566Y3282183D02*
D03*
D58*
X0719036Y3246505D02*
D03*
X0712737D02*
D03*
D60*
X0727068Y3236865D02*
D03*
X0732580D02*
D03*
D61*
X0735335Y3311905D02*
D03*
Y3304267D02*
D03*
X0727698Y3308086D02*
D03*
D63*
X0770139Y3329346D02*
D03*
X0779587D02*
D03*
X0796910D02*
D03*
X0809902D02*
D03*
X0770139Y3363204D02*
D03*
X0809902D02*
D03*
X0796910D02*
D03*
D104*
X0828898Y3251976D02*
D03*
D105*
X0825768Y3251956D02*
D03*
X0822579D02*
D03*
X0816280Y3251956D02*
D03*
X0813131D02*
D03*
X0809981Y3251956D02*
D03*
X0806832Y3251956D02*
D03*
X0803682D02*
D03*
X0800532Y3251956D02*
D03*
X0797383Y3251956D02*
D03*
X0794233D02*
D03*
D106*
X0819430Y3251956D02*
D03*
D107*
X0791556Y3256405D02*
D03*
Y3259554D02*
D03*
Y3262743D02*
D03*
X0791556Y3265893D02*
D03*
X0791556Y3269003D02*
D03*
X0791556Y3272153D02*
D03*
X0791556Y3275303D02*
D03*
Y3278452D02*
D03*
Y3281602D02*
D03*
X0791556Y3284751D02*
D03*
Y3287940D02*
D03*
X0791556Y3291247D02*
D03*
X0831556Y3256405D02*
D03*
X0831595Y3259594D02*
D03*
Y3262743D02*
D03*
X0831595Y3265893D02*
D03*
X0831595Y3269043D02*
D03*
X0831595Y3272153D02*
D03*
X0831595Y3275302D02*
D03*
Y3278452D02*
D03*
X0831595Y3281601D02*
D03*
X0831595Y3284751D02*
D03*
Y3287901D02*
D03*
Y3291090D02*
D03*
D108*
X0828859Y3295519D02*
D03*
X0825709D02*
D03*
X0819410D02*
D03*
X0809962D02*
D03*
X0806812D02*
D03*
X0800513D02*
D03*
X0797363D02*
D03*
D109*
X0822560D02*
D03*
X0816261D02*
D03*
X0813111D02*
D03*
X0803662D02*
D03*
X0794213D02*
D03*
D110*
X0777540Y3311117D02*
D03*
D111*
X0781328Y3309149D02*
D03*
X0781328Y3311117D02*
D03*
X0781328Y3313086D02*
D03*
X0773751Y3313086D02*
D03*
X0773751Y3311117D02*
D03*
Y3309149D02*
D03*
D112*
X0779509Y3314905D02*
D03*
X0777540Y3314905D02*
D03*
X0775572Y3314905D02*
D03*
X0775572Y3307330D02*
D03*
X0777540Y3307330D02*
D03*
X0779509Y3307330D02*
D03*
D113*
X0855749Y3287180D02*
D03*
X0850749D02*
D03*
X0855749Y3282180D02*
D03*
X0850749D02*
D03*
X0855749Y3277180D02*
D03*
X0850749D02*
D03*
M02*
